<svg width="36" height="38" viewBox="0 0 36 38" fill="none" xmlns="http://www.w3.org/2000/svg">
<path d="M3.25897 12.6989L28.0572 9.15384V21.1538C28.0572 23.5538 26.0762 24.1538 25.0858 24.1538H5.65734C2.9145 24.1538 2.22879 22.4615 2.22879 21.6154V13.8868C2.22879 13.2897 2.66784 12.7834 3.25897 12.6989Z" fill="white"/>
<path d="M34 2L28.7503 4.44623C28.3275 4.64326 28.0572 5.06746 28.0572 5.53394V9.15384M5.65734 30.6153C11.2954 30.6153 23.0744 30.6153 25.0858 30.6153C27.0293 30.6153 27.8489 28.8918 28.0395 27.9427C28.0524 27.8785 28.0572 27.8132 28.0572 27.7477V21.1538M28.0572 9.15384L3.25897 12.6989C2.66784 12.7834 2.22879 13.2897 2.22879 13.8868V21.6154C2.22879 22.4615 2.9145 24.1538 5.65734 24.1538C8.40018 24.1538 19.7525 24.1538 25.0858 24.1538C26.0762 24.1538 28.0572 23.5538 28.0572 21.1538M28.0572 9.15384V21.1538" stroke="black" stroke-width="2.5" stroke-linecap="round"/>
<path d="M19.2499 33.8462C19.2499 35.4613 20.5435 36.7501 22.1141 36.7501C23.6848 36.7501 24.9784 35.4613 24.9784 33.8462C24.9784 32.2312 23.6848 30.9424 22.1141 30.9424C20.5435 30.9424 19.2499 32.2312 19.2499 33.8462Z" fill="white" stroke="black" stroke-width="2.5"/>
<path d="M3.25 33.8462C3.25 35.4613 4.54363 36.7501 6.11426 36.7501C7.68489 36.7501 8.97852 35.4613 8.97852 33.8462C8.97852 32.2312 7.68489 30.9424 6.11426 30.9424C4.54363 30.9424 3.25 32.2312 3.25 33.8462Z" fill="white" stroke="black" stroke-width="2.5"/>
</svg>
