<svg width="645" height="512" viewBox="0 0 645 512" fill="none" xmlns="http://www.w3.org/2000/svg">
<path d="M608.5 456L645 511.3H0C0 511.3 25.6281 465.819 83.3818 431.167C83.3818 431.167 94.0301 432.25 93.3082 425.031C92.5862 417.811 88.6157 409.148 93.3082 413.119C98.0006 417.089 98.0007 427.557 99.9859 423.045C101.971 418.533 99.264 408.426 102.693 412.216C105.942 415.826 109.371 423.045 112.078 419.075C114.785 415.104 166.764 400.485 170.734 399.763C174.705 399.041 172.719 390.559 173.802 390.378C179.397 389.295 173.802 398.5 179.939 395.793C186.075 393.086 204.123 392.905 212.064 388.032C220.005 383.159 367.457 369.082 475.384 392.725C583.492 416.548 608.5 456 608.5 456Z" fill="#D0D4DE"/>
<path d="M271.803 259.711C271.442 259.711 271.081 259.53 270.9 259.35C268.013 255.379 262.959 243.829 262.418 238.414C261.876 233 264.945 220.366 265.125 219.825C265.306 219.283 265.847 218.922 266.388 219.103C266.93 219.283 267.291 219.825 267.11 220.366C267.11 220.547 264.042 233.361 264.584 238.234C265.125 243.107 270.179 254.477 272.705 258.087C273.066 258.628 272.886 259.169 272.525 259.53C272.164 259.711 271.983 259.711 271.803 259.711Z" fill="#45402E"/>
<path d="M286.602 377.745L279.744 377.203C287.144 375.218 291.836 363.126 294.724 355.004C295.265 353.38 295.807 351.936 296.348 350.673C298.875 343.995 299.055 323.059 299.055 315.118C297.973 311.328 295.085 302.124 293.1 299.236C292.197 297.973 291.836 296.529 292.197 295.085C292.919 292.017 295.987 290.031 298.695 288.407C299.597 287.866 300.86 287.144 301.402 286.602C301.943 282.812 306.455 281.549 309.884 280.647C310.967 280.286 311.87 280.105 312.772 279.744C316.021 276.856 330.098 249.784 333.166 235.166C335.873 222.893 331.361 218.561 331.361 218.561L335.512 213.869C336.234 214.591 342.912 220.547 339.483 236.609C336.776 249.062 321.435 283.173 315.479 285.519C314.216 286.061 312.952 286.422 311.689 286.783C310.426 287.144 308.44 287.685 307.719 288.046C307.358 290.573 304.831 292.197 302.304 293.822C301.221 294.543 299.597 295.626 298.875 296.348C301.763 301.221 305.192 312.772 305.553 314.035L305.733 314.757C305.733 317.645 306.275 343.814 302.665 353.019C302.124 354.282 301.582 355.726 301.221 357.17C297.431 366.375 297.251 374.857 286.602 377.745Z" fill="#FFF4CC"/>
<path d="M403.012 315.118C398.139 312.772 385.325 310.245 377.564 308.621C374.316 307.899 371.428 307.357 369.262 306.816C364.75 305.733 361.501 306.996 358.794 308.079C357.711 308.44 356.809 308.801 355.907 309.162C351.936 310.065 349.409 306.275 347.424 303.567C347.243 303.206 347.063 302.845 346.702 302.665C344.175 304.109 340.927 306.094 337.678 305.192C336.234 304.831 334.971 303.748 334.249 302.304C333.347 300.499 332.805 298.514 332.444 296.709C331.903 294.182 331.361 292.558 330.278 291.656C325.947 288.227 325.947 286.602 325.947 286.241L329.196 281.007C329.196 281.007 331.722 284.797 334.249 286.783C337.317 289.129 338.039 292.378 338.761 295.265C339.122 296.709 339.483 297.972 340.024 299.236C340.927 299.055 343.092 297.972 343.814 297.431C344.897 296.709 345.8 296.348 346.702 295.987C349.59 295.265 351.214 297.792 352.838 300.138C353.38 301.041 354.463 302.484 355.185 303.026C355.726 302.845 356.268 302.665 356.809 302.484C359.877 301.221 364.75 299.236 371.247 301.041C373.233 301.582 375.94 302.124 379.189 302.845C387.671 304.65 395.793 306.996 401.388 309.704L403.012 315.118Z" fill="#FFF4CC"/>
<path d="M438.566 349.048C438.386 349.048 438.206 349.048 438.025 348.868C426.294 341.288 400.124 339.122 399.763 339.122C399.222 339.122 398.68 338.581 398.861 338.039C398.861 337.498 399.402 336.956 399.944 337.137C401.027 337.137 427.016 339.302 439.108 347.244C439.649 347.605 439.649 348.146 439.469 348.687C439.288 348.868 438.927 349.048 438.566 349.048Z" fill="#45402E"/>
<path d="M429.182 328.654C428.46 328.654 427.738 328.474 426.835 328.293C423.045 327.21 403.373 316.562 402.651 316.201C402.11 315.84 401.929 315.299 402.29 314.757C402.651 314.216 403.192 314.035 403.734 314.396C410.773 318.186 424.669 325.586 427.557 326.308C429.181 326.669 429.723 326.669 429.903 326.488C430.084 325.947 430.445 325.767 430.986 325.767C431.528 325.767 432.069 326.308 432.069 326.849C432.069 327.21 431.889 327.752 431.347 328.293C430.625 328.474 429.903 328.654 429.182 328.654Z" fill="#45402E"/>
<path d="M440.191 314.577C440.191 314.577 430.264 324.323 430.264 325.225C430.264 326.128 437.303 332.625 437.844 334.61C438.386 336.776 443.078 334.069 444.342 334.61C445.605 335.152 445.425 338.761 441.815 339.664C438.205 340.386 438.386 349.771 439.649 351.214C440.913 352.478 452.102 358.253 458.419 364.75C464.736 371.248 468.165 377.745 470.692 378.828C473.219 379.911 475.926 380.633 476.648 375.399C477.37 370.165 478.272 358.975 471.414 350.853C464.555 342.732 461.668 342.01 459.683 342.01C457.517 342.01 454.268 342.19 455.531 339.483C456.795 336.595 459.683 334.069 458.6 331.723C457.697 329.196 449.576 313.855 440.191 314.577Z" fill="#45402E"/>
<path d="M476.467 382.798C474.301 382.798 473.038 381.535 472.677 380.813C472.497 380.272 472.677 379.73 473.218 379.369C473.76 379.189 474.301 379.369 474.662 379.73C474.662 379.911 475.384 380.994 477.73 380.452C480.799 379.73 483.145 378.828 483.686 375.218C484.408 371.248 483.867 360.419 479.174 352.658C476.828 348.688 473.579 345.62 470.872 343.273C467.985 340.566 465.819 338.581 465.638 336.235C465.638 335.513 465.638 334.61 465.458 333.708C465.458 330.82 465.277 327.752 463.653 324.323C461.307 319.63 455.712 313.494 450.298 311.148C445.425 309.163 443.259 310.065 441.274 314.757C441.093 315.299 440.371 315.479 439.83 315.299C439.288 315.118 439.108 314.397 439.288 313.855C441.815 308.08 445.244 306.636 451.019 309.163C456.975 311.689 462.931 318.187 465.458 323.24C467.443 327.211 467.443 330.459 467.624 333.527C467.624 334.249 467.624 335.152 467.804 335.874C467.985 337.317 469.97 339.303 472.316 341.468C475.023 343.995 478.452 347.244 480.979 351.395C486.394 360.058 486.574 371.609 485.852 375.399C484.95 380.272 481.701 381.355 478.272 382.257C477.37 382.618 476.828 382.798 476.467 382.798Z" fill="#45402E"/>
<path d="M290.392 218.922C285.339 218.922 275.954 218.2 271.081 213.688C268.374 211.342 267.11 209.357 266.028 207.552C265.125 206.108 264.223 204.845 262.598 203.401C258.628 199.611 260.252 195.279 260.252 195.099C260.433 194.557 261.155 194.377 261.696 194.557C262.237 194.738 262.418 195.46 262.237 195.821C262.237 196.001 260.974 199.069 264.042 201.777C265.847 203.401 266.749 204.845 267.652 206.289C268.735 207.913 269.998 209.718 272.344 212.064C277.398 216.756 288.587 216.756 291.836 216.576C292.378 216.576 292.919 216.937 292.919 217.659C292.919 218.2 292.558 218.742 291.836 218.742C291.656 218.922 290.934 218.922 290.392 218.922Z" fill="#45402E"/>
<path d="M298.153 228.307C287.866 228.307 277.939 226.322 272.525 224.337C261.515 220.005 261.696 215.313 262.237 214.049C262.418 213.508 262.598 213.147 262.779 212.605C263.14 211.523 263.32 211.162 262.779 210.079C261.335 207.913 262.418 203.04 262.598 202.499C262.779 201.957 263.32 201.596 263.862 201.777C264.403 201.957 264.764 202.499 264.584 203.04C264.042 204.845 263.681 207.913 264.403 208.996C265.667 210.801 265.125 212.064 264.584 213.327C264.403 213.688 264.223 214.049 264.223 214.591C263.681 216.396 265.847 219.464 273.427 222.351C282.451 225.961 305.553 229.029 319.089 222.351C341.107 211.703 342.731 207.732 342.731 206.83C342.731 205.928 342.551 205.025 342.551 203.942C342.19 201.055 341.829 197.806 342.912 195.279C344.175 192.031 345.439 188.963 344.175 184.992C343.273 182.104 343.092 177.953 342.912 173.983C342.731 171.456 342.731 169.11 342.371 167.485C341.649 162.432 340.024 158.822 339.483 158.461C339.122 158.1 338.941 157.379 339.302 157.018C339.663 156.657 340.385 156.476 340.746 156.837C342.19 158.101 343.814 163.154 344.356 167.305C344.717 169.11 344.717 171.637 344.897 173.983C345.078 177.953 345.258 181.924 346.161 184.451C347.604 189.143 346.161 192.753 344.897 196.001C343.995 198.167 344.356 201.055 344.717 203.942C344.897 205.025 344.897 205.928 344.897 207.011C345.078 209.357 342.551 213.688 320.171 224.517C313.674 227.224 305.914 228.307 298.153 228.307Z" fill="#45402E"/>
<path d="M392.183 230.112C386.769 230.112 380.993 228.849 378.286 228.307C374.135 227.405 373.233 221.81 372.691 217.839C372.511 216.396 372.15 214.049 371.789 213.869C369.262 212.245 368.901 210.801 368.901 206.83C368.901 204.845 367.818 203.401 366.374 201.596C365.652 200.513 364.75 199.431 364.028 197.987C362.584 195.099 357.531 180.841 358.794 176.69C359.697 173.802 356.087 167.305 350.312 165.139C343.995 162.613 331.542 154.852 331 154.671C330.459 154.31 330.278 153.769 330.639 153.228C331 152.686 331.542 152.506 332.083 152.867C332.264 152.867 345.078 160.808 351.034 163.154C357.711 165.681 361.862 173.261 360.78 177.231C359.877 180.3 364.028 193.294 366.014 197.084C366.555 198.348 367.457 199.25 368.179 200.333C369.623 202.138 371.067 204.123 371.067 206.83C371.067 210.44 371.428 210.981 373.052 212.064C374.135 212.786 374.496 214.771 374.857 217.479C375.398 221.088 376.12 225.6 378.828 226.322C388.573 228.488 399.402 229.21 400.666 225.239C401.568 221.991 401.207 216.757 400.846 212.064C400.666 208.635 400.305 205.567 400.666 203.401C401.207 200.152 395.251 177.953 391.642 164.778C389.837 158.281 388.573 153.228 388.213 151.242C386.949 145.287 350.492 118.936 341.107 115.146C332.986 111.898 321.074 107.566 309.523 107.927C309.162 107.927 308.982 107.747 308.621 107.566C306.636 105.22 303.928 102.693 302.845 102.152C302.665 102.332 302.484 102.513 302.124 102.874C299.597 105.581 293.821 111.898 285.519 110.815C278.3 109.912 274.149 108.288 272.164 107.386C272.164 108.288 271.983 109.191 271.261 109.912L271.081 110.093C270.9 110.273 266.569 112.8 254.838 111.898C243.467 110.815 237.151 110.273 226.322 99.4446C223.254 96.3764 219.644 92.5863 216.035 88.7962C207.191 79.5917 197.265 69.1239 193.475 67.3191C189.143 65.1534 181.382 64.2509 178.495 64.0705C178.134 67.3191 176.509 77.065 168.388 80.3137C168.388 81.577 168.929 85.3671 173.983 92.0449C174.705 92.9473 175.607 94.2106 176.69 95.6545C185.172 106.844 204.845 132.833 211.162 135.541C213.147 136.443 216.576 137.526 220.366 138.97C231.014 142.76 244.009 147.452 247.98 151.423C251.228 154.671 254.116 167.305 256.643 178.495C258.086 184.992 259.711 191.67 260.613 192.753C261.876 194.377 264.764 195.821 266.93 196.904C269.276 197.987 270.539 198.709 271.081 199.611C271.442 200.152 271.261 200.694 270.72 201.055C270.179 201.416 269.637 201.235 269.276 200.694C268.915 200.333 267.291 199.43 265.847 198.709C263.501 197.445 260.433 196.001 258.808 194.016C257.725 192.572 256.462 187.519 254.477 178.856C252.311 169.11 249.243 155.754 246.355 152.867C242.746 149.257 229.39 144.384 219.464 140.955C215.493 139.511 212.244 138.248 210.079 137.526C203.22 134.638 184.09 109.19 174.705 96.9178C173.622 95.474 172.719 94.2106 171.997 93.3082C165.139 84.2842 165.861 79.7722 166.042 79.4113C166.042 79.0503 166.403 78.8698 166.763 78.6894C175.787 75.6212 176.148 63.1681 176.148 63.1681C176.148 62.8071 176.329 62.6266 176.509 62.4462C176.69 62.2657 177.051 62.0852 177.231 62.0852C177.592 62.0852 188.241 62.8071 194.016 65.6948C198.167 67.6801 207.732 77.787 217.117 87.5329C220.907 91.5034 224.337 95.1131 227.405 98.1812C237.692 108.469 243.468 109.01 254.657 110.093C264.584 110.995 268.735 109.19 269.457 108.83C269.637 108.469 269.637 107.747 269.637 107.205C269.637 106.664 269.637 105.22 270.9 105.22C271.261 105.22 271.442 105.4 272.164 105.581C273.969 106.303 277.939 108.108 285.339 109.01C292.558 109.912 297.972 104.137 300.138 101.791C300.86 101.069 301.221 100.708 301.582 100.527C302.124 100.166 303.387 99.6251 309.343 106.303C321.074 106.122 333.166 110.454 341.288 113.702C350.673 117.493 388.032 144.023 389.656 151.423C390.017 153.408 391.461 158.462 393.086 164.959C398.319 184.631 402.651 201.055 402.11 204.484C401.749 206.289 402.109 209.357 402.29 212.606C402.651 217.479 403.192 222.893 402.11 226.503C401.388 229.029 397.056 230.112 392.183 230.112Z" fill="#45402E"/>
<path d="M285.159 119.297C281.729 119.297 278.481 118.756 275.593 117.673C265.125 114.063 265.306 110.634 265.486 109.912C265.667 109.371 266.208 109.01 266.75 109.01C267.291 109.19 267.652 109.551 267.652 110.093C267.652 110.273 268.013 112.62 276.495 115.507C285.88 118.756 299.236 116.951 308.44 105.761C308.801 105.4 309.523 105.22 309.884 105.581C310.245 105.942 310.426 106.664 310.065 107.025C303.026 115.868 293.641 119.297 285.159 119.297Z" fill="#45402E"/>
<path d="M193.835 36.6375L64.4313 13.897L184.09 18.048L193.835 36.6375Z" fill="#FFF4CC"/>
<path d="M172.539 17.687V11.9116L64.4313 13.8969L172.539 17.687Z" fill="#FFCE1D"/>
<path d="M179.578 11.7312L157.198 0L64.4313 13.897L179.578 11.7312Z" fill="#FFF4CC"/>
<path d="M167.305 79.9527C166.944 79.9527 166.763 79.7723 166.583 79.5918C166.402 79.4113 150.52 61.0023 145.828 57.2122C144.925 56.4903 143.843 55.5879 142.76 54.6855C138.428 51.2564 133.736 47.2858 128.863 45.1201C122.365 42.4129 114.063 29.0574 113.702 28.5159C113.341 27.9745 113.522 27.433 114.063 27.0721C114.605 26.7111 115.146 26.8916 115.507 27.433C115.507 27.6135 123.809 40.7886 129.765 43.3153C134.999 45.481 139.872 49.6321 144.203 53.0612C145.286 53.9636 146.189 54.6855 147.272 55.4074C152.145 59.1975 167.666 77.2455 168.388 77.9674C168.749 78.3284 168.749 79.0503 168.207 79.4113C167.846 79.9527 167.485 79.9527 167.305 79.9527Z" fill="#45402E"/>
<path d="M135.721 26.1696L67.319 13.897L138.067 35.1936L135.721 26.1696Z" fill="#FFCE1D"/>
<path d="M148.535 38.4421L173.983 46.0223L175.788 33.5692L145.647 28.1548C145.647 28.1548 146.369 32.1253 146.73 33.5692C146.911 35.013 148.535 38.4421 148.535 38.4421Z" fill="#E4D392"/>
<path d="M275.954 108.468C275.773 108.468 275.773 108.468 275.593 108.468C275.051 108.288 274.691 107.747 274.871 107.205C274.871 107.205 276.856 100.166 274.871 95.4739C274.691 94.9325 274.871 94.391 275.412 94.0301C275.954 93.8496 276.495 94.0301 276.856 94.5715C279.022 99.9859 277.037 107.386 276.856 107.747C276.856 108.108 276.495 108.468 275.954 108.468Z" fill="#45402E"/>
<path d="M299.236 104.859C298.875 104.859 298.514 104.678 298.333 104.498C295.446 100.527 290.753 93.6692 290.934 91.6839C290.934 91.1425 291.475 90.601 292.017 90.7815C292.558 90.7815 293.1 91.3229 292.919 91.8644C292.919 92.9473 296.709 98.5421 299.958 103.235C300.319 103.776 300.138 104.317 299.777 104.678C299.777 104.678 299.416 104.859 299.236 104.859Z" fill="#45402E"/>
<path d="M416.006 267.471C415.826 267.471 415.465 267.471 415.284 267.471C412.397 266.749 401.027 255.199 399.041 252.492C397.056 249.784 394.168 248.341 393.085 247.799C392.364 248.521 391.1 251.048 390.92 253.213C390.739 255.921 390.378 258.447 388.754 259.53C388.212 259.891 387.31 260.252 386.227 259.891C382.978 258.989 383.52 255.921 384.242 251.77L384.422 250.326C384.964 246.897 386.949 243.287 388.032 241.121C388.393 240.58 388.573 240.038 388.754 239.677C387.852 238.234 384.603 232.639 382.257 228.849C381.896 228.307 382.076 227.766 382.618 227.405C383.159 227.044 383.701 227.224 384.061 227.766C385.144 229.571 390.559 238.414 390.92 238.956C391.281 239.677 390.92 240.219 390.017 242.024C388.934 244.009 387.13 247.438 386.588 250.506L386.408 251.95C385.686 256.282 385.686 257.365 386.949 257.725C387.491 257.906 387.671 257.725 387.671 257.725C388.573 257.004 388.934 253.935 388.934 252.852C389.115 249.784 390.92 246.536 392.183 245.633C392.725 245.272 393.266 245.272 393.446 245.453C394.529 245.814 398.319 247.799 400.666 251.048C403.373 254.657 414.021 264.945 415.645 265.306C415.826 265.306 416.187 265.306 416.187 265.125C416.367 264.764 416.187 263.501 414.563 262.057C412.577 260.252 405.719 251.228 406.26 249.062C406.441 248.521 406.802 248.341 407.163 248.16C408.065 247.98 409.148 248.701 414.743 253.574C417.631 256.101 421.962 259.891 423.045 260.072C423.587 260.252 424.128 260.252 424.308 260.252C424.128 260.072 423.947 259.711 423.587 259.169C422.684 257.906 421.06 256.101 419.255 254.296C416.909 251.589 414.563 249.062 413.841 247.619C413.48 247.077 413.841 246.536 414.202 246.175C414.743 245.994 415.285 246.175 415.645 246.536C416.367 247.799 418.714 250.506 420.879 252.672C422.684 254.657 424.308 256.462 425.211 257.725C426.113 258.989 427.016 260.433 426.294 261.335C425.572 262.418 424.128 262.237 422.684 261.876C421.06 261.516 418.172 258.989 413.48 254.838C412.216 253.755 410.772 252.311 409.509 251.409C411.133 254.116 414.202 258.447 416.187 260.072C418.172 261.876 419.075 264.042 418.172 265.667C417.811 266.93 417.089 267.471 416.006 267.471Z" fill="#45402E"/>
<path d="M426.655 258.628C425.211 258.628 423.406 257.906 422.504 257.365C421.962 257.004 421.782 256.462 422.143 255.921C422.504 255.379 423.045 255.199 423.587 255.56C424.85 256.282 426.835 256.643 427.196 256.462C427.196 256.462 427.196 256.462 427.196 256.282C427.196 256.282 427.196 255.74 425.211 253.755C422.323 251.048 417.992 245.272 416.187 242.926C415.826 242.565 415.826 241.843 416.187 241.482C417.45 240.039 428.099 244.912 428.279 245.092C428.46 245.092 428.46 245.092 428.46 245.092C428.46 245.092 428.46 244.19 427.196 243.107C425.572 241.843 416.187 238.414 402.29 233.902H402.11C399.222 233 397.959 228.849 397.778 228.307C397.598 227.766 397.959 227.224 398.5 227.044C399.042 226.864 399.583 227.224 399.763 227.766C400.124 228.668 401.207 231.376 402.651 231.917H402.832C413.119 235.166 425.933 239.497 428.46 241.482C430.806 243.468 430.806 245.273 430.265 246.175C429.723 247.077 428.46 247.438 427.377 246.897C426.294 246.355 422.323 244.731 419.616 243.829C421.601 246.536 424.67 250.326 426.835 252.311C428.64 254.116 429.543 255.379 429.543 256.462C429.543 257.365 428.821 257.906 428.64 258.087C427.918 258.448 427.196 258.628 426.655 258.628Z" fill="#45402E"/>
<path d="M260.974 17.687C260.974 17.687 247.979 20.9357 246.355 28.1549C244.55 35.1936 246.355 42.5933 251.95 41.8713C257.545 41.1494 264.764 36.2765 269.637 36.6374C274.51 36.9984 273.427 38.8032 271.803 41.8713C269.998 44.9395 273.247 50.1734 281.91 47.8272C290.573 45.3005 290.934 40.7885 297.251 42.5933C303.567 44.3981 297.792 58.656 299.236 60.6413C300.68 62.807 301.041 65.5142 304.289 60.6413C307.718 55.7683 312.591 49.0905 317.825 50.8953C323.059 52.7001 312.952 62.807 307.718 64.7923C302.484 66.9581 302.484 66.9581 302.484 66.9581C302.484 66.9581 300.319 81.577 297.251 83.7427C297.251 83.7427 318.186 81.0355 326.127 73.6358C334.068 66.2362 327.21 66.2362 328.654 62.4461C330.098 58.656 338.039 58.295 338.039 53.6025C338.039 48.9101 336.956 49.632 329.737 46.0224C322.337 42.5933 324.503 40.7885 325.586 38.9837C326.669 37.1789 327.752 34.1107 321.796 32.3059C315.84 30.5011 301.943 26.3501 304.47 22.56C307.177 18.7699 308.44 11.0092 299.416 11.7312C290.392 12.4531 281.91 18.2285 276.676 17.687C271.442 17.1456 266.749 15.7017 260.974 17.687Z" fill="#45402E"/>
<path d="M278.12 96.5569H277.939C277.398 96.3764 276.495 96.1959 275.593 96.0155C269.457 94.7521 256.823 91.8644 250.145 87.1719C241.843 81.3966 243.467 66.7777 244.911 62.0852C246.355 57.5732 249.784 41.691 249.784 41.691C249.784 41.33 249.965 41.1495 250.326 40.969C250.506 40.7886 250.867 40.7886 251.048 40.7886C251.409 40.7886 251.589 40.7886 251.589 40.969C251.77 40.969 251.77 40.9691 251.95 40.7886C254.296 40.4276 257.184 39.3447 259.891 38.2618C263.501 36.818 266.93 35.3742 269.998 35.5546C271.622 35.7351 273.608 35.9156 274.33 37.3594C275.052 38.8033 274.149 40.4276 273.066 42.4129C272.525 43.3153 272.705 44.5786 273.427 45.481C274.871 47.2858 278.12 47.8273 281.91 46.7444C285.519 45.6615 287.685 44.3982 289.309 43.3153C291.836 41.691 293.821 40.4276 297.792 41.5105C302.845 42.9543 301.582 49.993 300.86 55.4074C300.499 57.2122 300.138 59.5585 300.499 60.0999C300.68 60.4609 301.041 60.8219 301.221 61.3633C301.402 61.7243 301.763 62.2657 301.943 62.4462C301.943 62.4462 302.484 62.2657 303.928 60.0999C306.816 55.7684 312.411 47.8273 318.547 49.993C319.991 50.5345 320.713 51.4369 320.713 52.7002C320.893 56.8513 313.133 64.0705 308.44 65.8753L303.748 67.6801C303.206 70.2068 300.319 80.8552 298.514 84.1038C298.333 84.2843 298.333 84.4647 298.153 84.8257C297.07 87.1719 294.543 91.8644 289.851 94.3912C289.309 94.5716 288.768 94.3912 288.407 94.0302C288.227 93.4888 288.407 92.9473 288.768 92.5863C292.919 90.4206 295.085 86.0891 296.168 83.9233C296.348 83.5623 296.529 83.3819 296.529 83.2014C298.514 79.7723 301.582 66.7777 301.582 66.7777C301.582 66.4167 301.943 66.2363 302.124 66.0558L307.357 63.89C311.328 62.2657 318.367 55.5879 318.186 52.7002C318.186 52.3393 318.186 52.1588 317.464 51.7978C313.313 50.354 309.162 55.4075 305.192 61.1828C303.567 63.5291 302.484 64.4314 301.402 64.4314C300.138 64.4314 299.597 63.3486 299.055 62.2657C298.875 61.9047 298.694 61.5438 298.333 61.1828C297.612 60.0999 297.792 58.2951 298.333 54.866C299.055 50.354 299.958 44.2177 296.89 43.3153C293.821 42.4129 292.378 43.3153 290.031 44.7591C288.227 46.0225 285.88 47.4663 282.09 48.5492C275.232 50.5345 272.344 47.8273 271.261 46.5639C269.998 44.9396 269.818 42.7739 270.72 41.1495C271.442 40.0666 272.164 38.4423 271.983 38.0814C271.983 38.0814 271.622 37.5399 269.457 37.3594C267.11 37.179 263.681 38.6228 260.433 39.8862C257.725 40.9691 254.838 42.2324 252.131 42.5934C251.95 42.7739 251.589 42.7738 251.228 42.7738C250.506 46.3834 247.799 58.4756 246.536 62.4462C245.272 66.5972 243.828 79.9527 251.048 85.1867C257.364 89.6987 269.818 92.4059 275.773 93.6692C276.676 93.8497 277.578 94.0302 278.12 94.2107C278.661 94.3911 279.022 94.9326 278.842 95.474C279.022 96.196 278.481 96.5569 278.12 96.5569ZM251.228 40.969C251.228 41.1495 251.228 41.1495 251.228 40.969C251.228 41.1495 251.228 41.1495 251.228 40.969Z" fill="#45402E"/>
<path d="M247.438 57.2123C247.258 57.2123 247.077 57.2123 246.897 57.0319C241.482 54.1442 238.414 48.5493 237.331 44.2178C236.97 42.9544 236.609 40.6082 237.331 39.3448C237.873 38.4424 238.775 38.0814 239.858 38.2619C241.663 38.4424 244.009 40.0667 245.633 44.0373C247.619 48.7298 249.243 50.8955 249.243 50.8955C249.604 51.437 249.604 51.9784 249.062 52.3394C248.521 52.7003 247.98 52.7003 247.619 52.1589C247.619 51.9784 245.814 49.8127 243.648 44.7592C242.204 41.5106 240.399 40.4277 239.497 40.2472C239.136 40.2472 238.956 40.4277 238.956 40.4277C238.414 41.6911 240.399 51.2565 247.799 55.0466C248.34 55.227 248.521 55.949 248.16 56.4904C248.16 57.0319 247.799 57.2123 247.438 57.2123Z" fill="#45402E"/>
<path d="M290.031 54.3245C289.851 54.3245 289.67 54.3245 289.49 54.3245C288.587 54.144 288.046 53.4221 287.685 52.5197C287.324 51.2563 284.797 49.632 282.993 48.7296C282.451 48.5491 282.271 47.8272 282.451 47.2858C282.632 46.7443 283.353 46.5639 283.895 46.7443C284.797 47.1053 289.129 49.4515 289.67 51.9782C289.67 52.1587 289.67 52.1587 289.851 52.1587C290.212 52.1587 290.753 51.9783 291.114 51.6173C291.295 51.2563 291.475 50.8954 291.114 50.5344C289.67 48.0077 288.768 46.5639 287.685 46.2029C287.144 46.0224 286.783 45.481 286.963 44.9395C287.144 44.3981 287.685 44.0371 288.226 44.2176C290.392 44.759 291.656 46.9248 293.099 49.4515C293.641 50.5344 293.641 51.7978 292.919 52.8807C292.017 53.7831 290.934 54.3245 290.031 54.3245Z" fill="#45402E"/>
<path d="M252.491 47.1052C252.311 47.1052 252.311 47.1052 252.13 47.1052C250.867 46.7442 249.965 46.0223 249.784 44.9394C249.423 43.4956 250.506 42.0517 250.687 42.0517C251.048 41.6908 251.769 41.5103 252.13 42.0517C252.491 42.4127 252.672 43.1346 252.13 43.4956C251.95 43.676 251.589 44.2175 251.769 44.5784C251.769 44.7589 252.13 44.9394 252.311 45.1199C253.213 44.7589 255.74 43.676 258.447 43.676C258.989 43.676 259.53 43.3151 259.891 42.5932C260.252 41.8712 260.072 40.9688 260.072 40.6079C259.53 40.6079 259.169 40.4274 258.989 39.886C258.808 39.3445 258.989 38.8031 259.53 38.6226C260.252 38.2616 260.974 38.4421 261.515 38.9836C262.418 39.886 262.418 41.8712 261.876 43.3151C261.335 44.7589 260.072 45.6613 258.628 45.8418C255.56 46.0223 253.033 47.2856 253.033 47.2856C252.852 46.9247 252.672 47.1052 252.491 47.1052Z" fill="#45402E"/>
<path d="M255.018 53.2418C253.574 52.7003 252.672 52.3394 251.77 52.1589C251.228 51.9784 250.867 51.9784 250.326 51.7979C249.784 51.6174 249.243 51.6174 248.34 51.437C249.062 50.1736 250.687 49.4517 252.311 49.8126C253.935 50.3541 255.199 51.6174 255.018 53.2418Z" fill="#45402E"/>
<path d="M274.149 56.1292C274.871 55.2268 275.773 54.6854 276.856 54.3244C277.939 53.9635 279.022 53.9635 280.105 54.1439C281.188 54.5049 282.271 54.8659 282.993 55.5878C283.895 56.3097 284.436 57.2121 284.797 58.1145C283.714 57.7535 282.993 57.3926 282.09 57.0316C281.188 56.6707 280.466 56.4902 279.563 56.3097C278.842 56.1292 277.939 55.9487 277.037 55.9487C276.134 56.1292 275.232 56.1292 274.149 56.1292Z" fill="#45402E"/>
<path d="M261.154 68.5825H260.974C260.793 68.5825 257.545 67.8606 255.56 66.9582C254.838 66.5973 254.477 66.0558 254.296 65.3339C253.935 63.7096 255.018 62.0853 255.199 61.7243L260.432 51.6174C260.432 51.4369 260.613 51.4369 260.613 51.4369C261.696 50.3541 262.779 50.1736 263.32 50.1736C264.944 50.3541 265.847 51.9784 266.027 52.1589C266.208 52.3394 266.208 52.5198 266.208 52.8808C266.208 52.8808 265.125 60.6414 264.944 63.7096C264.764 67.6802 261.696 68.5825 261.696 68.5825C261.335 68.5825 261.335 68.5825 261.154 68.5825ZM262.057 52.7003L256.823 62.8072C256.462 63.3486 255.92 64.4315 256.101 64.7925C256.101 64.7925 256.101 64.9729 256.281 64.9729C257.725 65.6949 260.072 66.2363 260.974 66.4168C261.335 66.2363 262.418 65.5144 262.598 63.5291C262.779 60.6414 263.681 54.5051 263.862 52.8808C263.681 52.7003 263.32 52.3394 262.959 52.1589C262.779 52.1589 262.418 52.3393 262.057 52.7003Z" fill="#45402E"/>
<path d="M248.521 56.1294C249.604 55.7684 249.965 55.9489 251.048 56.3098C253.755 57.3927 254.657 61.3633 254.116 62.9876C253.574 64.4315 251.589 62.8071 248.882 61.7242C247.98 61.3633 247.98 61.7242 247.258 61.3633L248.521 56.1294Z" fill="#FFF4CC"/>
<path d="M269.818 66.2363C269.457 68.0411 272.886 67.6802 276.676 68.2216C280.646 68.763 283.534 70.3873 283.895 68.5825C284.256 66.7777 281.729 62.0853 277.759 61.5438C273.969 60.6414 270.179 64.251 269.818 66.2363Z" fill="#FFF4CC"/>
<path d="M260.072 76.5236C262.418 75.8017 264.403 75.4407 266.388 74.8993C267.291 74.7188 268.193 74.1774 269.276 73.8164C270.178 73.4554 271.081 72.914 272.344 72.3726C272.164 73.6359 271.442 74.7188 270.539 75.6212C269.637 76.5236 268.554 77.065 267.291 77.426C266.027 77.787 264.764 77.9674 263.681 77.787C262.237 77.6065 261.155 77.2455 260.072 76.5236Z" fill="#45402E"/>
<path d="M305.914 163.876C305.914 173.802 301.763 181.924 286.783 181.924C276.134 181.924 269.818 173.802 269.818 163.876C269.818 153.95 274.149 145.828 286.783 145.828C299.236 145.647 305.914 153.769 305.914 163.876Z" fill="#FFF4CC"/>
<path d="M284.978 166.042C284.797 166.042 284.797 166.042 284.617 166.042C284.076 166.042 282.993 166.042 282.632 164.959C282.271 164.056 282.993 163.515 283.534 163.154C283.715 162.973 284.076 162.612 284.256 162.432C284.256 162.432 284.256 162.432 284.076 162.252C282.632 161.349 273.608 161.53 265.667 162.432C265.125 162.432 264.584 162.071 264.584 161.53C264.584 160.988 264.945 160.447 265.486 160.447C268.374 160.086 282.632 158.822 285.339 160.627C286.061 161.169 286.422 161.71 286.422 162.252C286.422 162.793 286.241 163.334 285.88 163.876C286.783 163.876 287.866 163.695 289.309 163.515C295.265 162.793 305.372 161.53 314.396 163.876C314.938 164.056 315.299 164.598 315.118 165.139C314.938 165.681 314.396 166.042 313.855 165.861C305.372 163.515 295.446 164.778 289.49 165.5C287.505 165.861 285.88 166.042 284.978 166.042Z" fill="#45402E"/>
<path d="M139.15 43.8565C138.789 43.8565 138.428 43.6761 138.248 43.1346C137.165 40.7884 137.165 36.0959 137.165 35.1935L134.638 26.5304C134.458 26.1695 134.638 25.8085 134.819 25.628C134.999 25.4476 135.36 25.2671 135.721 25.2671L144.384 26.7109C144.745 26.7109 146.911 27.4329 147.272 32.1253C147.452 34.2911 148.174 35.7349 149.257 37.7202C149.618 38.2617 149.437 38.8031 148.896 39.164C148.355 39.525 147.813 39.3445 147.452 38.8031C146.189 36.6373 145.467 35.013 145.106 32.3058C144.925 29.2377 143.843 28.6962 143.843 28.6962L136.804 27.4328L138.789 34.652C138.789 34.8325 138.789 34.8325 138.789 35.013C138.789 36.4569 138.789 40.4274 139.692 42.2322C139.872 42.7737 139.692 43.3151 139.15 43.6761C139.331 43.8565 139.15 43.8565 139.15 43.8565Z" fill="#45402E"/>
<path d="M177.412 63.3486C177.231 63.3486 177.051 63.3486 176.87 63.1681C174.524 61.7242 153.588 49.0906 150.701 44.0372C150.52 43.6762 150.52 43.3153 150.701 42.9543C150.701 42.9543 151.603 41.5105 151.784 39.5252C151.784 38.9838 152.325 38.4423 152.866 38.6228C153.408 38.6228 153.949 39.1642 153.769 39.7057C153.588 41.5105 153.047 42.7738 152.686 43.4958C155.754 47.8273 171.636 57.7537 177.773 61.5438C178.314 61.9047 178.495 62.4462 178.134 62.9876C178.134 63.1681 177.773 63.3486 177.412 63.3486Z" fill="#45402E"/>
<path d="M283.534 421.24C283.534 421.24 282.632 405.9 281.729 405.178C280.827 404.456 270.539 405.9 268.374 404.817C266.208 403.734 265.125 409.509 263.681 410.231C262.237 410.953 259.35 408.065 261.335 404.456C263.32 400.846 255.199 394.349 253.213 394.529C251.228 394.71 238.233 399.944 228.307 400.485C218.381 401.027 210.44 399.222 207.732 400.666C205.025 402.11 202.498 403.734 206.288 408.065C210.079 412.397 218.922 421.24 230.653 421.24C242.384 421.421 245.092 419.436 246.536 417.811C247.979 416.006 250.326 412.938 251.769 416.187C253.213 419.255 253.394 423.587 256.101 424.489C258.808 425.391 277.578 429.723 283.534 421.24Z" fill="#45402E"/>
<path d="M266.208 436.762C263.14 436.762 260.433 436.401 258.086 435.859C253.394 434.776 250.506 432.43 247.979 430.264C247.257 429.723 246.536 429.182 245.994 428.64C244.731 427.738 241.482 428.099 237.873 428.46C233.902 428.821 228.849 429.543 223.434 428.64C212.244 426.835 202.679 418.894 199.972 415.465C196.723 411.314 197.986 407.704 199.611 404.275C201.235 401.207 203.762 400.846 204.845 401.207C205.386 401.388 205.747 401.929 205.567 402.47C205.386 403.012 204.845 403.373 204.303 403.192C204.123 403.192 202.498 402.831 201.416 405.178C199.791 408.246 198.889 410.953 201.416 414.021C204.303 417.631 213.688 424.85 223.615 426.294C228.668 427.016 233.541 426.474 237.512 426.113C241.663 425.572 245.092 425.211 247.077 426.655C247.799 427.196 248.521 427.738 249.243 428.279C251.77 430.264 254.296 432.43 258.447 433.513C264.042 434.957 273.427 434.596 279.022 431.708C284.256 429.001 285.158 426.474 282.632 421.421C282.451 420.879 282.632 420.338 283.173 419.977C283.714 419.797 284.256 419.977 284.617 420.519C287.685 426.655 286.422 430.445 280.105 433.694C276.134 435.859 270.9 436.762 266.208 436.762Z" fill="#45402E"/>
<path d="M257.184 401.749C256.823 401.749 256.462 401.568 256.282 401.207C256.101 400.666 256.281 400.124 256.642 399.763C256.823 399.583 261.515 396.515 266.569 375.218C266.749 374.677 267.291 374.316 267.832 374.496C268.374 374.677 268.735 375.218 268.554 375.759C263.14 398.139 258.086 401.388 257.545 401.568C257.364 401.568 257.184 401.749 257.184 401.749Z" fill="#45402E"/>
<path d="M278.3 408.968C277.759 408.968 277.217 408.607 277.217 408.066C276.676 400.124 287.144 378.467 287.505 377.564C287.685 377.023 288.407 376.843 288.949 377.023C289.49 377.203 289.67 377.925 289.49 378.467C289.309 378.647 278.842 400.666 279.383 408.066C279.383 408.427 279.022 408.968 278.3 408.968Z" fill="#45402E"/>
<path d="M286.422 379.008C279.564 379.008 267.291 375.398 261.335 371.969C255.199 368.36 257.004 355.004 258.628 343.273C258.808 341.829 258.989 340.385 259.169 339.122C259.891 333.527 259.711 322.698 259.53 312.411C259.35 300.138 259.169 288.407 260.252 283.715C262.418 274.871 280.466 241.482 281.188 240.038C281.549 239.497 282.09 239.317 282.632 239.678C283.173 240.038 283.354 240.58 282.993 241.121C282.812 241.482 264.223 275.593 262.237 284.256C261.155 288.768 261.335 300.86 261.516 312.411C261.696 322.879 261.876 333.708 261.155 339.483C260.974 340.927 260.794 342.371 260.613 343.815C259.169 354.463 257.364 367.457 262.237 370.345C268.374 373.955 282.812 377.925 288.227 377.023C290.753 376.481 299.777 373.955 304.65 360.96C308.621 350.312 309.884 315.299 309.884 311.689C309.884 310.787 308.079 307.899 306.816 305.733C304.289 301.582 303.206 299.416 304.289 298.334C305.192 297.431 306.636 297.973 307.177 298.334C309.523 299.416 311.869 301.221 313.494 302.485C313.855 302.846 314.396 303.206 314.757 303.387C314.757 303.206 314.757 303.206 314.757 303.026C314.396 301.402 313.855 299.958 313.313 298.695C312.411 296.168 311.869 294.724 312.772 293.822C313.133 293.28 313.855 293.1 314.757 293.28C317.464 293.822 318.908 293.641 320.172 292.558C321.615 291.114 346.341 250.867 348.146 242.385C350.131 232.819 349.951 222.171 347.785 218.561C345.258 214.41 342.19 210.259 342.01 210.259C341.649 209.718 341.829 209.176 342.19 208.815C342.732 208.454 343.273 208.635 343.634 208.996C343.634 208.996 346.883 213.327 349.409 217.478C352.297 221.99 351.936 233.902 350.131 242.746C348.326 251.589 323.24 292.378 321.615 294.002C319.63 295.987 316.923 295.807 314.396 295.265C314.577 295.807 314.938 296.89 315.299 297.973C315.66 299.236 316.201 300.68 316.742 302.304C317.103 303.567 317.464 305.011 316.381 305.733C315.299 306.455 314.216 305.553 312.23 303.928C310.606 302.665 308.621 301.041 306.455 299.958C306.455 299.958 306.455 299.958 306.275 299.958C306.816 301.041 307.899 303.026 308.801 304.47C310.787 307.899 312.05 310.065 312.05 311.509C312.05 311.87 311.148 349.77 306.816 361.502C301.402 375.579 291.656 378.286 288.768 378.828C288.046 379.008 287.324 379.008 286.422 379.008Z" fill="#45402E"/>
<path d="M381.354 345.98C380.452 345.98 379.55 345.98 378.828 345.8C374.496 345.439 359.516 340.566 346.161 336.234C338.22 333.527 330.64 331.181 326.849 330.098C316.743 327.391 310.426 319.63 310.065 319.269C309.704 318.908 309.704 318.186 310.245 317.825C310.606 317.464 311.328 317.464 311.689 318.006C311.689 318.006 317.825 325.586 327.391 328.113C331.181 329.196 338.761 331.542 346.702 334.249C359.155 338.4 374.857 343.454 378.828 343.815C384.964 344.356 395.251 342.912 398.861 337.498C402.29 331.903 402.832 318.728 401.929 315.299L401.749 314.938C400.666 310.967 397.959 301.763 389.476 298.875C378.828 295.265 360.238 290.212 358.073 290.573C357.712 290.753 357.17 291.656 356.99 292.378C356.629 293.28 356.087 294.183 355.185 294.363C354.102 294.363 353.561 293.28 353.38 292.739C353.019 292.017 352.658 291.114 352.297 290.212C351.756 288.768 350.492 285.88 349.77 285.7C349.049 286.241 348.146 287.324 347.424 288.407C345.8 290.573 344.717 292.017 343.454 291.475C342.371 291.114 342.371 289.671 342.371 289.129C342.371 287.866 342.551 286.422 342.912 285.339C343.454 282.451 343.454 281.369 341.468 280.647C336.776 278.842 335.873 271.262 335.873 268.374C335.873 267.832 336.415 267.291 336.956 267.291C337.498 267.291 338.039 267.832 338.039 268.374C338.039 270.179 338.761 277.217 342.371 278.661C346.161 280.105 345.619 282.993 345.078 285.7C344.897 286.602 344.717 287.685 344.717 288.768C345.258 288.227 345.8 287.505 346.161 286.963C347.063 285.7 347.966 284.617 348.868 284.076C349.59 283.534 350.312 283.534 350.673 283.715C352.297 284.256 353.38 286.602 354.463 289.31C354.824 290.032 355.185 290.934 355.365 291.475C355.907 290.393 356.448 288.949 357.892 288.588C360.599 287.866 383.34 294.544 390.378 296.89C399.944 300.138 402.832 310.426 403.914 314.396L404.095 314.757C405.178 318.547 404.817 332.444 400.846 338.581C397.056 344.536 387.491 345.98 381.354 345.98Z" fill="#45402E"/>
<path d="M520.865 414.382C520.143 414.382 519.782 414.382 519.782 414.382C519.241 414.382 518.88 413.841 518.88 413.119C518.88 412.578 519.602 412.217 520.143 412.217C520.324 412.217 532.777 413.66 543.786 392.725C553.352 374.677 553.712 369.262 553.532 367.818C553.171 367.999 552.81 368.54 552.269 368.901C551.366 369.804 550.103 370.887 548.479 371.609C546.313 372.511 523.933 391.461 519.421 411.495C519.241 412.036 518.699 412.397 518.158 412.217C517.617 412.036 517.256 411.495 517.436 410.953C522.309 390.017 545.23 370.526 547.757 369.623C549.02 369.082 549.922 368.179 550.825 367.457C551.727 366.555 552.449 365.833 553.532 365.653C554.073 365.472 554.795 365.833 555.156 366.375C557.683 369.623 550.283 384.964 545.591 393.808C535.484 412.758 524.475 414.382 520.865 414.382Z" fill="#45402E"/>
<path d="M522.489 411.855C522.128 411.855 521.948 411.675 521.768 411.494C521.407 411.133 521.407 410.412 521.948 410.051C522.128 409.87 536.206 397.958 542.342 384.964C542.523 384.422 543.245 384.242 543.786 384.422C544.328 384.603 544.508 385.325 544.328 385.866C538.011 399.222 523.933 411.133 523.392 411.675C523.031 411.855 522.67 411.855 522.489 411.855Z" fill="#45402E"/>
<path d="M519.963 386.769C519.241 386.769 518.88 386.227 518.88 385.686C520.324 368.54 528.626 350.853 543.786 333.166C544.508 332.444 544.869 331.903 545.049 331.722C545.41 331.361 545.591 330.639 545.952 329.917C547.215 327.571 548.118 325.766 549.561 326.127C550.825 326.488 551.366 327.932 551.005 335.151C550.284 349.59 540.357 377.564 539.996 378.647C539.816 379.189 539.274 379.55 538.733 379.369C538.191 379.189 537.83 378.647 538.011 378.106C538.191 377.745 548.118 349.409 548.84 335.151C549.02 331.542 549.02 329.917 548.84 328.835C548.479 329.376 547.937 330.278 547.757 330.82C547.396 331.542 547.035 332.264 546.674 332.805C546.493 333.166 545.952 333.708 545.23 334.429C530.431 351.756 522.309 369.082 520.865 385.866C521.046 386.227 520.504 386.769 519.963 386.769Z" fill="#45402E"/>
<path d="M520.504 397.056C520.324 397.056 520.324 397.056 520.143 397.056C519.602 396.876 519.241 396.334 519.421 395.793C525.558 375.038 539.635 348.868 539.816 348.507C540.177 347.966 540.718 347.785 541.26 348.146C541.801 348.507 541.981 349.048 541.62 349.59C541.44 349.77 527.363 375.759 521.407 396.515C521.407 396.695 521.046 397.056 520.504 397.056Z" fill="#45402E"/>
<path d="M514.188 412.217C514.007 412.217 513.646 412.036 513.466 411.856C512.744 411.134 495.779 394.529 497.764 373.955C499.569 355.907 503.9 338.942 507.329 336.776C508.051 336.415 508.593 336.415 508.954 336.595C510.939 337.317 511.48 340.385 512.022 344.176C512.383 347.063 512.924 350.312 514.007 353.2C516.895 360.058 523.933 391.281 520.143 408.426C519.963 408.968 519.421 409.329 518.88 409.148C518.339 408.968 517.978 408.426 518.158 407.885C521.768 391.281 514.909 360.78 512.202 354.102C510.939 351.034 510.397 347.605 510.036 344.536C509.676 342.19 509.315 339.122 508.412 338.581C506.427 339.844 501.734 354.102 499.93 374.316C498.125 393.988 514.729 410.231 514.909 410.412C515.27 410.773 515.27 411.495 514.909 411.856C514.729 412.216 514.548 412.217 514.188 412.217Z" fill="#45402E"/>
<path d="M515.631 409.87C515.27 409.87 514.909 409.69 514.729 409.329C505.705 389.295 504.261 361.321 504.261 361.14C504.261 360.599 504.622 360.058 505.164 360.058C505.705 360.058 506.246 360.419 506.246 360.96C506.246 361.321 507.871 388.934 516.534 408.426C516.714 408.968 516.534 409.509 515.992 409.87C515.992 409.69 515.812 409.87 515.631 409.87Z" fill="#45402E"/>
<path d="M514.368 358.072C513.826 358.072 513.285 357.711 513.285 357.17C511.661 329.556 523.031 305.914 528.626 294.363C529.889 291.656 530.972 289.49 531.333 288.227C532.596 284.256 534.04 283.534 535.123 283.715C536.747 283.895 538.913 285.88 539.274 299.777C539.816 317.464 534.582 348.326 534.582 348.687C534.401 349.229 534.04 349.59 533.318 349.59C532.777 349.409 532.416 348.868 532.416 348.326C532.416 347.965 537.65 317.284 537.108 299.958C536.747 286.963 534.762 285.88 534.762 285.88C534.582 285.88 534.04 286.602 533.318 288.948C532.957 290.212 531.874 292.378 530.431 295.265C525.016 306.455 513.826 329.917 515.27 356.989C515.451 357.531 515.09 358.072 514.368 358.072Z" fill="#45402E"/>
<path d="M519.421 382.257C518.88 382.257 518.519 381.896 518.339 381.354C517.978 378.286 519.061 373.413 521.226 364.75C522.309 360.419 523.572 355.004 525.016 348.326C529.167 328.835 531.694 301.763 531.694 301.402C531.694 300.86 532.236 300.499 532.777 300.499C533.318 300.499 533.86 301.041 533.679 301.582C533.679 301.943 531.153 329.015 527.002 348.687C525.558 355.365 524.294 360.78 523.212 365.292C521.226 373.774 520.143 378.286 520.504 381.174C520.685 381.715 520.143 382.257 519.421 382.257C519.602 382.257 519.602 382.257 519.421 382.257Z" fill="#45402E"/>
<path d="M535.665 419.616C535.304 419.616 534.762 419.255 534.582 418.894C534.401 418.353 534.762 417.811 535.304 417.631C536.026 417.45 536.748 417.27 537.47 416.909C537.289 416.909 537.289 416.728 537.109 416.728C536.928 416.548 536.567 416.006 536.748 415.284C536.928 414.382 537.65 413.299 538.372 412.216C538.372 412.036 538.552 412.036 538.552 411.855C534.582 413.299 529.167 414.924 525.558 413.299C525.016 413.119 524.836 412.397 525.016 411.855C525.197 411.314 525.919 411.133 526.46 411.314C530.07 412.938 536.387 410.412 538.372 409.69C539.094 409.329 540.538 408.968 541.26 409.87C541.982 410.772 541.26 411.855 540.357 413.299C539.996 413.841 539.635 414.382 539.455 414.924C539.996 414.743 540.899 414.563 541.44 414.382C543.245 413.841 545.05 413.299 546.854 413.299C547.937 413.299 548.298 413.841 548.479 414.382C548.659 415.284 548.659 416.006 536.387 419.796C535.845 419.616 535.845 419.616 535.665 419.616Z" fill="#45402E"/>
<path d="M510.758 411.675C510.578 411.675 510.397 411.675 510.217 411.495C510.036 411.314 505.885 409.148 502.456 405.539C500.832 403.734 499.569 403.193 498.847 403.373C498.666 403.373 498.486 403.554 498.486 403.915C498.305 404.817 497.764 404.997 497.583 405.178C496.681 405.539 495.598 404.817 494.515 403.915C494.515 403.915 494.335 403.734 494.154 403.734C494.154 403.915 494.154 403.915 494.154 404.095C494.335 406.261 494.696 409.329 492.349 410.412C491.808 410.592 491.267 410.412 490.906 409.87C490.725 409.329 490.906 408.787 491.447 408.427C492.349 408.066 492.169 405.539 491.989 404.095C491.808 402.471 491.808 401.568 492.71 401.027C493.613 400.485 494.696 401.207 495.779 402.11C495.959 402.29 496.32 402.651 496.681 402.832C497.042 402.11 497.583 401.568 498.305 401.388C499.208 401.027 501.193 401.027 503.9 404.095C506.968 407.524 510.939 409.509 510.939 409.509C511.48 409.69 511.661 410.412 511.3 410.953C511.48 411.495 511.119 411.675 510.758 411.675Z" fill="#45402E"/>
<path d="M148.716 410.412C147.091 410.412 145.106 410.231 143.121 410.051C134.999 408.968 122.907 404.636 112.62 390.92C95.474 367.999 94.7521 349.229 94.5716 341.288C94.5716 340.024 94.5716 339.122 94.3911 338.4C94.0301 334.791 94.3911 330.459 96.5569 329.557C97.0983 329.376 98.1812 329.196 99.4446 330.639C100.347 331.722 100.527 332.986 100.708 334.249C101.069 336.595 101.43 339.122 106.664 342.19C117.312 348.327 152.867 371.248 162.793 405.178C162.974 405.719 162.613 406.261 162.071 406.441C161.53 406.622 160.988 406.261 160.808 405.719C151.242 372.511 116.229 350.131 105.581 343.995C99.6251 340.566 99.0836 337.137 98.7226 334.61C98.5421 333.527 98.3617 332.625 97.8202 332.083C97.6397 331.722 97.4593 331.722 97.2788 331.722C96.9178 331.903 96.0155 334.249 96.5569 338.22C96.5569 338.942 96.7374 340.024 96.7374 341.288C97.0983 349.048 97.6398 367.277 114.424 389.837C124.351 403.012 135.541 407.163 143.482 408.246C151.964 409.329 158.101 407.344 158.281 407.344C158.822 407.163 159.364 407.524 159.544 408.065C159.725 408.607 159.364 409.148 158.823 409.329C158.462 409.148 154.671 410.412 148.716 410.412Z" fill="#45402E"/>
<path d="M158.642 406.622C158.642 406.622 158.461 406.622 158.642 406.622C157.74 406.441 141.857 403.553 124.712 388.213C107.566 372.872 102.332 351.936 102.332 351.756C102.152 351.214 102.513 350.673 103.054 350.492C103.596 350.312 104.137 350.673 104.317 351.214C104.317 351.395 109.371 371.608 126.155 386.588C142.94 401.568 158.822 404.456 159.003 404.456C159.544 404.636 159.905 405.178 159.905 405.719C159.544 406.261 159.183 406.622 158.642 406.622Z" fill="#45402E"/>
<path d="M168.929 406.26C168.388 406.26 168.027 405.899 167.846 405.358C167.666 404.817 168.207 404.275 168.749 404.095C168.929 404.095 188.602 399.944 189.324 363.487C190.226 323.24 182.104 304.109 177.051 299.055C175.968 297.972 175.066 297.431 174.705 297.611C172.719 298.333 172.539 307.177 172.539 312.591C172.359 319.63 168.929 326.488 164.237 335.873C162.613 339.122 160.808 342.731 159.003 346.702C151.964 361.862 155.754 388.032 155.754 388.393C155.754 388.934 155.393 389.476 154.852 389.656C154.31 389.837 153.769 389.295 153.589 388.754C153.408 387.671 149.618 361.682 157.018 345.98C158.822 341.829 160.808 338.219 162.432 334.971C166.944 325.766 170.373 319.089 170.373 312.591C170.554 303.206 170.915 296.89 173.802 295.807C175.788 294.904 177.773 297.07 178.495 297.611C185.534 304.65 192.211 327.752 191.309 363.667C190.407 401.929 169.832 406.08 168.929 406.26Z" fill="#45402E"/>
<path d="M144.565 415.646C144.384 415.646 144.384 415.646 144.565 415.646C138.428 415.465 138.067 414.382 138.067 413.841C137.887 413.119 138.428 412.397 139.511 412.036C141.496 411.134 142.94 411.314 144.204 411.314C145.286 411.314 146.369 411.495 147.813 410.953C150.52 410.051 151.062 408.968 151.062 408.968C151.242 408.426 151.784 408.065 152.325 408.246C152.867 408.426 153.228 408.968 153.047 409.509C153.047 409.87 152.325 411.675 148.535 412.938C146.73 413.48 145.286 413.48 144.204 413.299C143.301 413.299 142.76 413.299 141.857 413.299C142.76 413.48 143.662 413.48 144.745 413.48C145.286 413.48 145.828 414.021 145.828 414.563C145.467 415.104 145.106 415.646 144.565 415.646Z" fill="#45402E"/>
<path d="M176.149 409.69C175.788 409.69 175.607 409.509 175.427 409.329C175.066 408.968 175.066 408.246 175.427 407.885C176.149 407.343 176.69 406.441 177.231 405.899C177.231 405.899 177.232 405.899 177.051 406.08C176.329 406.982 175.246 408.246 173.802 407.524C171.998 406.621 171.456 404.636 171.456 404.275C171.276 403.734 171.637 403.192 172.178 403.012C172.719 402.831 173.261 403.192 173.441 403.734C173.622 404.095 173.983 405.178 174.705 405.539C174.705 405.358 175.246 404.817 175.427 404.636C176.149 403.734 177.412 402.29 179.036 403.373C179.578 403.734 179.758 404.095 179.758 404.817C179.939 406.441 177.773 408.607 176.69 409.509C176.69 409.509 176.329 409.69 176.149 409.69Z" fill="#45402E"/>
<path d="M168.749 401.749C168.568 401.749 168.388 401.749 168.388 401.568C167.846 401.388 167.666 400.666 167.846 400.124C168.027 399.763 184.09 363.487 178.856 320.172C178.856 319.63 179.217 319.089 179.758 319.089C180.3 318.908 180.841 319.45 180.841 319.991C186.075 364.028 169.651 400.666 169.651 401.027C169.471 401.568 169.11 401.749 168.749 401.749Z" fill="#45402E"/>
<path d="M153.95 384.603C153.589 384.603 153.228 384.423 153.047 384.062C152.867 383.881 139.331 356.629 143.662 316.021C146.369 290.392 152.145 274.691 155.754 264.403C157.92 258.628 159.184 254.838 158.823 252.492C158.642 251.228 157.018 240.399 159.905 239.136C160.447 238.775 161.53 238.775 162.613 240.219C165.681 244.009 175.246 273.247 174.705 297.431C174.705 297.973 174.163 298.514 173.622 298.514C173.08 298.514 172.539 297.973 172.539 297.431C173.08 273.066 163.335 244.55 160.988 241.482C160.808 241.302 160.808 241.302 160.627 241.121C160.086 242.204 159.905 246.716 160.808 252.131C161.349 255.018 159.905 258.989 157.559 265.125C153.769 275.413 148.174 290.934 145.467 316.382C141.136 356.448 154.491 382.979 154.671 383.34C154.852 383.881 154.672 384.423 154.311 384.783C154.311 384.423 154.13 384.603 153.95 384.603Z" fill="#45402E"/>
<path d="M154.31 361.14C153.769 361.14 153.227 360.78 153.227 360.058C153.227 359.697 153.047 350.853 156.476 331.903C159.905 313.133 163.695 267.832 163.695 267.291C163.695 266.749 164.237 266.388 164.778 266.388C165.32 266.388 165.861 266.93 165.681 267.471C165.681 268.013 161.71 313.313 158.461 332.264C155.032 351.034 155.393 359.877 155.393 360.058C155.393 360.599 154.852 360.96 154.31 361.14Z" fill="#45402E"/>
<path d="M128.502 359.697C128.141 359.697 127.96 359.516 127.78 359.336C127.6 359.155 112.62 341.829 109.01 318.367C105.4 295.085 103.776 287.324 101.43 283.895C99.9861 281.91 99.9861 279.744 101.249 278.661C101.971 277.939 104.859 276.315 111.356 281.549C119.839 288.588 139.872 314.035 144.926 330.639C145.106 331.181 144.745 331.722 144.204 331.903C143.662 332.083 143.121 331.722 142.94 331.181C138.067 315.118 118.215 289.671 110.093 282.993C105.942 279.744 103.596 279.383 102.874 280.105C102.513 280.466 102.513 281.549 103.235 282.632C105.942 286.422 107.386 294.002 111.176 318.006C114.785 340.746 129.404 357.711 129.404 357.892C129.765 358.253 129.765 358.975 129.224 359.336C129.043 359.516 128.682 359.697 128.502 359.697Z" fill="#45402E"/>
<path d="M151.423 378.828C151.062 378.828 150.881 378.647 150.701 378.467C150.701 378.286 141.857 367.819 130.307 351.034C118.575 334.069 112.439 303.568 112.078 302.304C111.898 301.763 112.259 301.221 112.98 301.041C113.522 300.86 114.063 301.221 114.244 301.943C114.244 302.304 120.741 333.347 132.111 349.951C143.662 366.736 152.325 377.203 152.325 377.203C152.686 377.564 152.686 378.286 152.145 378.647C151.964 378.647 151.784 378.828 151.423 378.828Z" fill="#45402E"/>
<path d="M120.922 294.363C120.561 294.363 120.019 294.002 119.839 293.641C119.839 293.461 113.161 271.262 111.176 256.823C110.634 253.394 110.273 250.506 109.912 248.16C108.829 242.024 108.468 239.678 109.732 238.595C110.634 237.873 111.717 238.053 112.078 238.053C115.507 238.775 144.023 260.613 150.881 285.7C151.062 286.241 150.701 286.783 150.159 286.963C149.618 287.144 149.076 286.783 148.896 286.241C142.399 262.418 114.785 240.76 111.717 240.039C111.356 240.039 111.176 240.039 111.176 240.039C110.815 240.58 111.356 243.829 112.078 247.799C112.439 250.145 112.98 253.033 113.522 256.462C115.507 270.72 122.004 292.739 122.185 292.919C122.365 293.461 122.004 294.002 121.463 294.183C121.102 294.363 121.102 294.363 120.922 294.363Z" fill="#45402E"/>
<path d="M144.023 325.586C143.482 325.586 143.121 325.225 142.94 324.684C142.94 324.503 140.955 314.035 132.833 302.304C124.531 290.032 119.297 262.96 119.117 261.696C118.936 261.155 119.478 260.613 120.019 260.433C120.561 260.252 121.102 260.794 121.283 261.335C121.283 261.696 126.517 289.31 134.638 301.041C142.94 313.314 144.925 323.781 145.106 324.323C145.286 324.864 144.745 325.406 144.204 325.586C144.023 325.586 144.023 325.586 144.023 325.586Z" fill="#45402E"/>
<path d="M156.296 266.93C155.754 266.93 155.213 266.389 155.213 265.847C155.574 255.921 154.311 249.243 150.882 242.385L150.521 241.663C143.482 227.946 135.36 211.523 134.097 205.747C133.375 202.138 132.112 200.694 131.57 200.694C131.39 200.694 129.946 200.874 128.141 206.83C125.073 217.117 132.292 255.018 132.473 255.56C132.653 256.101 132.292 256.643 131.57 256.823C131.029 257.004 130.487 256.643 130.307 255.921C129.946 254.296 122.907 216.937 126.156 206.289C127.78 201.055 129.585 198.708 131.57 198.708C131.57 198.708 131.57 198.708 131.751 198.708C134.458 198.889 135.721 203.04 136.263 205.386C137.526 211.523 148.355 232.819 152.506 240.76L152.867 241.482C156.657 248.701 157.92 255.56 157.559 266.028C157.379 266.389 156.837 266.93 156.296 266.93Z" fill="#45402E"/>
<path d="M148.896 283.534C148.355 283.534 147.813 283.173 147.813 282.632C147.813 282.451 146.73 269.276 145.828 260.794C144.926 252.492 134.999 236.79 134.819 236.609C134.458 236.068 134.638 235.527 135.18 235.166C135.721 234.805 136.262 234.985 136.623 235.527C136.984 236.248 146.911 251.77 147.813 260.613C148.896 269.096 149.799 282.451 149.799 282.451C149.979 282.993 149.438 283.534 148.896 283.534Z" fill="#45402E"/>
</svg>
