<svg width="132" height="20" viewBox="0 0 132 20" fill="none" xmlns="http://www.w3.org/2000/svg">
<path d="M15.688 19L15.664 7.864L10.144 17.08H8.752L3.232 8.008V19H0.256V2.2H2.824L9.496 13.336L16.048 2.2H18.616L18.64 19H15.688ZM27.7859 6.04C29.6739 6.04 31.1139 6.496 32.1059 7.408C33.1139 8.304 33.6179 9.664 33.6179 11.488V19H30.7859V17.44C30.4179 18 29.8899 18.432 29.2019 18.736C28.5299 19.024 27.7139 19.168 26.7539 19.168C25.7939 19.168 24.9539 19.008 24.2339 18.688C23.5139 18.352 22.9539 17.896 22.5539 17.32C22.1699 16.728 21.9779 16.064 21.9779 15.328C21.9779 14.176 22.4019 13.256 23.2499 12.568C24.1139 11.864 25.4659 11.512 27.3059 11.512H30.6179V11.32C30.6179 10.424 30.3459 9.736 29.8019 9.256C29.2739 8.776 28.4819 8.536 27.4259 8.536C26.7059 8.536 25.9939 8.648 25.2899 8.872C24.6019 9.096 24.0179 9.408 23.5379 9.808L22.3619 7.624C23.0339 7.112 23.8419 6.72 24.7859 6.448C25.7299 6.176 26.7299 6.04 27.7859 6.04ZM27.3779 16.984C28.1299 16.984 28.7939 16.816 29.3699 16.48C29.9619 16.128 30.3779 15.632 30.6179 14.992V13.504H27.5219C25.7939 13.504 24.9299 14.072 24.9299 15.208C24.9299 15.752 25.1459 16.184 25.5779 16.504C26.0099 16.824 26.6099 16.984 27.3779 16.984ZM40.324 8.056C41.188 6.712 42.708 6.04 44.884 6.04V8.896C44.628 8.848 44.396 8.824 44.188 8.824C43.02 8.824 42.108 9.168 41.452 9.856C40.796 10.528 40.468 11.504 40.468 12.784V19H37.468V6.184H40.324V8.056ZM52.6609 13.504L50.4289 15.616V19H47.4289V1.192H50.4289V11.944L56.6449 6.184H60.2449L54.8929 11.56L60.7489 19H57.1009L52.6609 13.504ZM74.1957 12.664C74.1957 12.872 74.1797 13.168 74.1477 13.552H64.0917C64.2677 14.496 64.7237 15.248 65.4597 15.808C66.2117 16.352 67.1397 16.624 68.2437 16.624C69.6517 16.624 70.8117 16.16 71.7237 15.232L73.3317 17.08C72.7557 17.768 72.0277 18.288 71.1477 18.64C70.2677 18.992 69.2757 19.168 68.1717 19.168C66.7637 19.168 65.5237 18.888 64.4517 18.328C63.3797 17.768 62.5477 16.992 61.9557 16C61.3797 14.992 61.0917 13.856 61.0917 12.592C61.0917 11.344 61.3717 10.224 61.9317 9.232C62.5077 8.224 63.2997 7.44 64.3077 6.88C65.3157 6.32 66.4517 6.04 67.7157 6.04C68.9637 6.04 70.0757 6.32 71.0517 6.88C72.0437 7.424 72.8117 8.2 73.3557 9.208C73.9157 10.2 74.1957 11.352 74.1957 12.664ZM67.7157 8.44C66.7557 8.44 65.9397 8.728 65.2677 9.304C64.6117 9.864 64.2117 10.616 64.0677 11.56H71.3397C71.2117 10.632 70.8197 9.88 70.1637 9.304C69.5077 8.728 68.6917 8.44 67.7157 8.44ZM84.7814 18.304C84.4294 18.592 83.9974 18.808 83.4854 18.952C82.9894 19.096 82.4614 19.168 81.9014 19.168C80.4934 19.168 79.4054 18.8 78.6374 18.064C77.8694 17.328 77.4854 16.256 77.4854 14.848V8.68H75.3734V6.28H77.4854V3.352H80.4854V6.28H83.9174V8.68H80.4854V14.776C80.4854 15.4 80.6374 15.88 80.9414 16.216C81.2454 16.536 81.6854 16.696 82.2614 16.696C82.9334 16.696 83.4934 16.52 83.9414 16.168L84.7814 18.304ZM93.3213 11.968L90.6573 14.704V19H87.5373V2.2H90.6573V10.816L98.9613 2.2H102.465L95.4093 9.712L102.897 19H99.2493L93.3213 11.968ZM104.499 6.184H107.499V19H104.499V6.184ZM106.011 4.072C105.467 4.072 105.011 3.904 104.643 3.568C104.275 3.216 104.091 2.784 104.091 2.272C104.091 1.76 104.275 1.336 104.643 0.999999C105.011 0.647999 105.467 0.472 106.011 0.472C106.555 0.472 107.011 0.639999 107.379 0.975999C107.747 1.296 107.931 1.704 107.931 2.2C107.931 2.728 107.747 3.176 107.379 3.544C107.027 3.896 106.571 4.072 106.011 4.072ZM119.141 18.304C118.789 18.592 118.357 18.808 117.845 18.952C117.349 19.096 116.821 19.168 116.261 19.168C114.853 19.168 113.765 18.8 112.997 18.064C112.229 17.328 111.845 16.256 111.845 14.848V8.68H109.733V6.28H111.845V3.352H114.845V6.28H118.277V8.68H114.845V14.776C114.845 15.4 114.997 15.88 115.301 16.216C115.605 16.536 116.045 16.696 116.621 16.696C117.293 16.696 117.853 16.52 118.301 16.168L119.141 18.304ZM125.569 19.168C124.529 19.168 123.513 19.032 122.521 18.76C121.529 18.488 120.737 18.144 120.145 17.728L121.297 15.448C121.873 15.832 122.561 16.144 123.361 16.384C124.177 16.608 124.977 16.72 125.761 16.72C127.553 16.72 128.449 16.248 128.449 15.304C128.449 14.856 128.217 14.544 127.753 14.368C127.305 14.192 126.577 14.024 125.569 13.864C124.513 13.704 123.649 13.52 122.977 13.312C122.321 13.104 121.745 12.744 121.249 12.232C120.769 11.704 120.529 10.976 120.529 10.048C120.529 8.832 121.033 7.864 122.041 7.144C123.065 6.408 124.441 6.04 126.169 6.04C127.049 6.04 127.929 6.144 128.809 6.352C129.689 6.544 130.409 6.808 130.969 7.144L129.817 9.424C128.729 8.784 127.505 8.464 126.145 8.464C125.265 8.464 124.593 8.6 124.129 8.872C123.681 9.128 123.457 9.472 123.457 9.904C123.457 10.384 123.697 10.728 124.177 10.936C124.673 11.128 125.433 11.312 126.457 11.488C127.481 11.648 128.321 11.832 128.977 12.04C129.633 12.248 130.193 12.6 130.657 13.096C131.137 13.592 131.377 14.296 131.377 15.208C131.377 16.408 130.857 17.368 129.817 18.088C128.777 18.808 127.361 19.168 125.569 19.168Z" fill="#183850"/>
</svg>
