<svg width="132" height="20" viewBox="0 0 132 20" fill="none" xmlns="http://www.w3.org/2000/svg">
<path d="M18.64 19L18.616 2.2H16.048L9.496 13.336L2.824 2.2H0.256V19H3.232V8.008L8.752 17.08H10.144L15.664 7.864L15.688 19H18.64ZM27.7859 6.04C25.7219 6.04 23.7299 6.568 22.3619 7.624L23.5379 9.808C24.4979 9.016 25.9859 8.536 27.4259 8.536C29.5619 8.536 30.6179 9.568 30.6179 11.32V11.512H27.3059C23.4179 11.512 21.9779 13.192 21.9779 15.328C21.9779 17.56 23.8259 19.168 26.7539 19.168C28.6739 19.168 30.0659 18.544 30.7859 17.44V19H33.6179V11.488C33.6179 7.792 31.4819 6.04 27.7859 6.04ZM27.3779 16.984C25.8419 16.984 24.9299 16.288 24.9299 15.208C24.9299 14.272 25.4819 13.504 27.5219 13.504H30.6179V14.992C30.1139 16.312 28.8419 16.984 27.3779 16.984ZM40.324 8.056V6.184H37.468V19H40.468V12.784C40.468 10.168 41.908 8.824 44.188 8.824C44.404 8.824 44.62 8.848 44.884 8.896V6.04C42.748 6.04 41.188 6.712 40.324 8.056ZM57.1009 19H60.7489L54.8929 11.56L60.2449 6.184H56.6449L50.4289 11.944V1.192H47.4289V19H50.4289V15.616L52.6609 13.504L57.1009 19ZM74.1957 12.664C74.1957 8.656 71.4597 6.04 67.7157 6.04C63.8997 6.04 61.0917 8.776 61.0917 12.592C61.0917 16.408 63.8757 19.168 68.1717 19.168C70.3797 19.168 72.1797 18.448 73.3317 17.08L71.7237 15.232C70.8117 16.168 69.6837 16.624 68.2437 16.624C66.0117 16.624 64.4517 15.424 64.0917 13.552H74.1477C74.1717 13.264 74.1957 12.904 74.1957 12.664ZM67.7157 8.44C69.6837 8.44 71.0997 9.712 71.3397 11.56H64.0677C64.3557 9.688 65.7717 8.44 67.7157 8.44ZM83.9414 16.168C83.4854 16.528 82.8854 16.696 82.2614 16.696C81.1094 16.696 80.4854 16.024 80.4854 14.776V8.68H83.9174V6.28H80.4854V3.352H77.4854V6.28H75.3734V8.68H77.4854V14.848C77.4854 17.68 79.0934 19.168 81.9014 19.168C82.9814 19.168 84.0614 18.88 84.7814 18.304L83.9414 16.168ZM99.2493 19H102.897L95.4093 9.712L102.465 2.2H98.9613L90.6573 10.816V2.2H87.5373V19H90.6573V14.704L93.3213 11.968L99.2493 19ZM106.011 4.072C107.139 4.072 107.931 3.256 107.931 2.2C107.931 1.216 107.115 0.472 106.011 0.472C104.907 0.472 104.091 1.264 104.091 2.272C104.091 3.28 104.907 4.072 106.011 4.072ZM104.499 19H107.499V6.184H104.499V19ZM118.301 16.168C117.845 16.528 117.245 16.696 116.621 16.696C115.469 16.696 114.845 16.024 114.845 14.776V8.68H118.277V6.28H114.845V3.352H111.845V6.28H109.733V8.68H111.845V14.848C111.845 17.68 113.453 19.168 116.261 19.168C117.341 19.168 118.421 18.88 119.141 18.304L118.301 16.168ZM125.569 19.168C129.169 19.168 131.377 17.608 131.377 15.208C131.377 10.192 123.457 12.496 123.457 9.904C123.457 9.064 124.321 8.464 126.145 8.464C127.369 8.464 128.593 8.704 129.817 9.424L130.969 7.144C129.817 6.448 127.873 6.04 126.169 6.04C122.713 6.04 120.529 7.624 120.529 10.048C120.529 15.16 128.449 12.856 128.449 15.304C128.449 16.192 127.657 16.72 125.761 16.72C124.153 16.72 122.425 16.192 121.297 15.448L120.145 17.728C121.297 18.544 123.433 19.168 125.569 19.168Z" fill="white"/>
</svg>
