<svg width="28" height="30" viewBox="0 0 28 30" fill="none" xmlns="http://www.w3.org/2000/svg">
<path d="M14 3C10.6863 3 8 5.68629 8 9C8 12.3136 10.6863 15 14 15C17.3137 15 20 12.3136 20 9C20 5.68629 17.3137 3 14 3ZM5 9C5 4.02943 9.02944 0 14 0C18.9706 0 23 4.02943 23 9C23 13.9705 18.9706 18 14 18C9.02944 18 5 13.9705 5 9ZM8 24C5.51473 24 3.5 26.0146 3.5 28.5C3.5 29.3284 2.82842 30 2 30C1.17158 30 0.5 29.3284 0.5 28.5C0.5 24.3579 3.85787 21 8 21H20C24.1421 21 27.5 24.3579 27.5 28.5C27.5 29.3284 26.8284 30 26 30C25.1716 30 24.5 29.3284 24.5 28.5C24.5 26.0146 22.4853 24 20 24H8Z" fill="#0D0D0D"/>
</svg>
