<svg width="196" height="121" viewBox="0 0 196 121" fill="none" xmlns="http://www.w3.org/2000/svg">
<path d="M234.671 90.513C234.671 88.9715 233.57 87.2096 232.469 86.549L171.246 51.3128L170.585 51.533C165.079 52.8543 160.895 46.688 160.455 46.0273L159.574 44.706L98.3509 9.46975C97.6902 9.0293 97.0295 9.02928 96.8093 9.24951L3.43335 64.0859L70.6024 106.59L138.873 147.992L234.01 92.4951C234.231 91.8344 234.671 91.394 234.671 90.513Z" fill="white"/>
<path d="M138.652 148.433L138.212 148.212L69.9415 106.81L1.67139 63.6454L96.1485 8.36862C96.8091 7.92817 97.6901 7.92815 98.571 8.58883L160.014 44.0453L160.895 45.5869C161.335 46.2475 165.3 51.9734 170.145 50.8723L171.246 50.6521L232.689 86.1085C234.23 86.9894 235.331 88.9715 235.331 90.7333C235.331 91.8344 234.891 92.7153 234.01 92.9355L138.652 148.433ZM4.5343 63.8657L70.8224 105.709L138.652 146.891L233.349 91.6142C233.79 91.394 233.79 90.9535 233.79 90.7333C233.79 89.4119 232.909 87.8703 231.808 87.4299L170.805 52.1936L170.365 52.4139C164.419 53.7352 160.014 47.3487 159.574 46.4678L158.913 45.3667L97.9102 10.1304C97.4698 9.91021 97.2496 9.9102 97.0294 9.9102L4.5343 63.8657Z" fill="#150035"/>
<path d="M135.789 145.79L138.652 147.552L233.79 92.0545C234.23 91.8343 234.671 91.3938 234.671 90.5129C234.671 88.9713 235.111 88.9713 233.79 88.3107L138.432 143.808L135.789 145.79Z" fill="#150035"/>
<path d="M164.859 46.0274C161.996 40.0813 152.746 23.1239 137.551 14.535C117.51 3.08327 116.409 11.4518 101.654 0.880981L11.1409 53.5151L73.9054 99.7626L164.418 47.1285C164.859 47.569 165.299 46.9083 164.859 46.0274Z" fill="white"/>
<path d="M73.6849 100.864L73.0243 100.643L10.0396 53.9554V53.0746L10.48 52.8543L101.433 0L101.874 0.22024C109.141 5.28544 113.105 5.94611 117.51 6.60679C122.135 7.26747 127.64 7.92815 137.991 13.8743C153.187 22.4631 162.436 38.9801 165.74 45.8071C166.18 46.688 166.18 47.5689 165.519 48.0093C165.299 48.2296 164.859 48.4498 164.418 48.2295L73.6849 100.864ZM12.6823 53.7352L73.6849 98.8816L163.978 46.4678C161.335 41.1823 152.086 24.0047 137.11 15.4158C127.2 9.68996 121.915 9.02929 117.29 8.36861C112.665 7.70793 108.701 7.26747 101.433 2.20226L12.6823 53.7352Z" fill="#150035"/>
<path d="M107.82 4.84504C106.058 3.96413 103.856 2.86301 101.433 1.1012L10.9204 53.7353L26.5565 65.1871L28.0981 64.3061L17.0868 58.1398L107.82 4.84504Z" fill="#FFB000"/>
<path d="M26.3363 66.2881L9.81934 54.1757V53.2947L10.2598 53.0745L101.213 0.220215L101.654 0.660661C103.856 2.20224 105.838 3.5236 107.82 4.4045L106.939 5.94608C104.957 5.06517 102.975 3.96406 100.993 2.42248L12.2418 53.9554L17.0868 57.4791L29.4195 64.3061L26.3363 66.2881Z" fill="#150035"/>
<path d="M8.93848 62.324L73.685 99.7624C74.3457 100.203 74.7862 99.5422 74.3457 98.6613C71.4828 92.7152 62.2332 75.7578 47.0376 67.1689C26.997 55.7172 25.8959 64.0857 11.1407 53.7351L8.93848 62.324Z" fill="#FFB000"/>
<path d="M73.9051 100.864C73.6848 100.864 73.4646 100.864 73.0242 100.643L7.83716 62.7644L8.0574 62.1038L10.2597 52.8543L11.1406 52.4138L11.581 52.634C18.8485 57.6992 22.5924 58.1397 26.9969 58.8004C31.6216 59.461 37.1273 60.1217 47.4779 66.0678C62.6735 74.6567 71.923 91.1736 75.2264 98.0007C75.6669 98.8816 75.6669 99.7625 75.0062 100.203C74.786 100.643 74.3455 100.864 73.9051 100.864ZM9.81918 61.8836L73.0242 98.4411C69.5005 91.6141 60.6915 75.978 46.3768 67.8297C36.4666 62.1038 31.1812 61.4431 26.5564 60.7824C22.1519 60.1217 18.1878 59.6813 11.3608 55.0565L9.81918 61.8836Z" fill="#150035"/>
<path d="M71.2625 99.1017C53.2039 67.6094 35.1454 65.8476 27.4375 65.1869C17.5273 64.306 10.0396 57.479 9.59912 57.0385L10.4801 55.9374C10.4801 55.9374 17.9677 62.7644 27.4375 63.6453C35.3656 64.306 53.8646 66.0678 72.3636 98.2209L71.2625 99.1017Z" fill="#150035"/>
<path d="M66.8574 96.459C52.1023 72.6746 39.5494 70.9128 30.2999 69.5914C28.9786 69.3712 27.6572 69.151 26.556 68.9308C17.0863 66.9487 9.81887 59.461 9.37842 59.0206L10.4795 58.1396C10.4795 58.1396 17.9672 65.8476 26.9965 67.6094C28.0977 67.8296 29.419 68.0498 30.7403 68.2701C40.2101 69.5914 53.4237 71.5735 68.399 95.7984L66.8574 96.459Z" fill="#150035"/>
<path d="M61.3521 93.3759C55.406 83.6859 48.1385 77.5196 40.4306 75.3173C32.7227 73.115 22.8125 71.133 22.8125 71.133L23.0327 69.8116C23.0327 69.8116 33.1632 71.7937 40.8711 73.996C49.0195 76.1982 56.5071 82.805 62.6735 92.7152L61.3521 93.3759Z" fill="#150035"/>
<path d="M55.406 90.0725C55.406 90.0725 51.8824 84.7871 45.9362 81.0433C39.9901 77.5197 32.062 76.4185 32.062 76.4185L32.2823 75.0972C32.7227 75.0972 40.4306 75.9781 46.8172 79.9421C52.9835 83.686 56.7274 88.9714 56.7274 89.1916L55.406 90.0725Z" fill="#150035"/>
<path d="M70.602 111.214C67.2986 109.452 64.6559 106.369 62.8941 104.167L3.65319 70.032C2.33183 69.3713 1.45093 67.6095 1.45093 66.0679C1.45093 64.5263 2.55206 64.0858 3.65319 64.7465L64.8761 99.9827L65.757 101.304C66.1974 101.965 70.3817 108.131 75.8874 106.81L76.5481 106.59L137.771 141.826C139.092 142.486 139.973 144.248 139.973 145.79C139.973 147.331 138.872 147.772 137.771 147.111L78.3099 112.756C75.6672 113.196 73.0245 112.536 70.602 111.214Z" fill="#FFB000"/>
<path d="M138.872 148.432C138.432 148.432 137.991 148.212 137.33 147.992L78.0895 113.857C75.4468 114.077 72.804 113.417 70.1613 111.875C66.1973 109.673 63.5546 106.149 62.2332 104.607L3.43278 70.6926C1.8912 69.8117 0.790039 67.6094 0.790039 65.8476C0.790039 64.7465 1.23049 64.0858 1.89117 63.6453C2.55185 63.2049 3.43277 63.2049 4.31367 63.8656L65.7568 99.322L66.6378 100.864C67.0782 101.524 70.822 107.25 75.667 106.149L76.7681 105.929L76.9884 106.149L138.211 141.385C139.753 142.266 140.854 144.468 140.854 146.23C140.854 147.331 140.414 147.992 139.753 148.432C139.533 148.432 139.312 148.432 138.872 148.432ZM78.53 111.875L138.211 146.45C138.652 146.671 138.872 146.671 138.872 146.671C138.872 146.671 139.092 146.45 139.092 146.01C139.092 144.909 138.211 143.367 137.33 142.707L76.3277 107.47H75.8872C69.9411 108.792 65.3164 102.185 64.8759 101.524L64.2153 100.423L3.21254 65.187C2.77209 64.9667 2.55189 64.9667 2.55189 64.9667C2.55189 64.9667 2.33165 65.1869 2.33165 65.6274C2.33165 66.7285 3.21253 68.2701 4.09343 68.7106L63.3344 102.846L63.5545 103.066C64.6557 104.387 67.2984 107.911 71.0423 109.893C73.4648 111.434 75.8872 111.875 78.3097 111.655L78.53 111.875Z" fill="#150035"/>
<path d="M74.5657 98.8816C74.5657 98.8816 75.8871 94.6973 79.8512 92.2748L74.5657 98.8816Z" fill="#FFB000"/>
<path d="M75.4469 99.1017L73.6851 98.6612C73.6851 98.441 75.0064 94.0365 79.411 91.614L80.2918 93.1556C76.7682 95.1376 75.4469 99.1017 75.4469 99.1017Z" fill="#150035"/>
<path d="M228.504 74.2163L226.302 73.1151C213.308 66.5084 211.547 57.2589 192.387 46.2475C177.411 37.4385 168.162 43.3846 165.079 46.0273H164.638L78.7501 92.9355C78.7501 92.9355 74.5658 96.2389 74.786 99.7625L131.604 125.749L139.973 138.082L230.486 85.4478L228.504 74.2163Z" fill="#FFB000"/>
<path d="M139.753 139.183L139.312 138.522L131.164 126.41L73.905 100.423V99.7625C73.6847 95.7984 78.0893 92.495 78.3095 92.2748H78.5297L164.858 45.1464H165.299C169.043 42.0632 178.292 36.7778 193.268 45.5868C203.618 51.5329 208.904 57.0386 213.528 61.6633C217.713 65.8476 221.236 69.3712 226.962 72.4544L229.605 73.7758V74.2162L231.807 85.8882L231.367 86.3287L139.753 139.183ZM75.6667 99.1018L132.265 124.868L132.485 125.089L140.413 136.761L229.605 85.0073L227.623 74.8769L225.861 73.996C219.695 70.9129 215.951 67.169 211.767 62.7645C207.142 58.1397 201.856 52.8543 191.946 46.9082C177.632 38.5396 168.823 43.825 165.739 46.6879L165.519 46.9082H164.858L79.1904 93.5961C78.9702 94.0366 75.887 96.4591 75.6667 99.1018Z" fill="#150035"/>
<path d="M131.605 123.767L131.164 125.749H131.384L132.706 127.511L137.771 126.85L228.284 74.2163L222.118 70.2522L131.605 123.767Z" fill="white"/>
<path d="M132.045 128.832L131.825 128.172L130.724 126.63L130.283 126.41L130.724 123.327L131.164 123.107L132.045 124.648L131.605 123.767L132.485 123.987L132.265 125.529L133.146 126.85L137.33 126.19L226.522 74.4365L221.457 71.3533L221.897 70.6927L221.457 69.8118H222.338L229.165 73.9961V75.0972L228.504 75.3174L137.991 127.952H137.771L132.045 128.832Z" fill="#150035"/>
<path d="M137.991 126.85L228.504 74.2162L230.707 85.4477L139.973 138.082L137.991 126.85Z" fill="#150035"/>
<path d="M140.194 139.183L139.313 138.743V138.302L137.11 126.41L137.771 126.19L228.724 73.3353L229.605 73.7758V74.2162L231.808 85.8882L231.367 86.3287L140.194 139.183ZM138.872 127.291L140.634 136.54L229.385 85.0073L227.623 75.7578L138.872 127.291Z" fill="#150035"/>
<path d="M227.418 81.4453L140.602 131.487L140.932 132.059L227.748 82.0177L227.418 81.4453Z" fill="#FFB000"/>
<path d="M227.834 84.8963L141.018 134.938L141.348 135.51L228.164 85.4688L227.834 84.8963Z" fill="#FFB000"/>
<path d="M226.767 78.3079L139.951 128.349L140.281 128.922L227.097 78.8803L226.767 78.3079Z" fill="#FFB000"/>
<path d="M45.0553 73.5557L38.889 77.0793C37.1272 78.1804 35.8058 79.722 34.9248 81.7041C34.0439 84.3468 32.0619 86.549 29.6394 87.8704L17.0866 95.1378C16.8663 95.3581 16.8663 95.7985 17.3067 95.7985H23.4731C23.6933 95.7985 23.6933 96.0188 23.9135 96.0188L24.7945 100.203C24.7945 100.423 25.0147 100.423 25.2349 100.423L38.0081 93.1558C40.6508 91.8345 42.6328 89.412 43.5137 86.7692L43.7339 86.3288C44.3946 84.3468 45.9362 82.585 47.9183 81.4838L53.2037 78.6209C53.4239 78.6209 53.4239 78.4007 53.2037 78.1804L51.6621 77.0793C50.1205 75.9782 48.5789 74.877 46.8171 73.9961L45.0553 73.5557Z" fill="white"/>
<path d="M24.7945 101.304C24.5743 101.304 24.354 101.304 24.354 101.084C23.9136 100.864 23.6934 100.644 23.6934 100.203L23.0327 96.4593H17.3068C16.6461 96.4593 16.2056 96.0188 16.2056 95.5784C15.9854 95.1379 16.2057 94.4772 16.8663 94.257L29.4192 86.9895C31.6215 85.6682 33.3833 83.6861 34.2642 81.2636C35.1451 79.0614 36.6867 77.2996 38.4485 76.1985L45.0553 72.4546L46.8171 73.5557C48.5789 74.4366 50.1205 75.5378 51.6621 76.6389L53.2037 77.74C53.4239 77.9603 53.6441 78.4007 53.6441 78.6209C53.6441 79.0614 53.4239 79.2816 52.9834 79.5019L47.698 82.3648C45.9362 83.2457 44.6148 84.7873 43.9542 86.7693L43.7339 87.2098C42.6328 90.2929 40.6508 92.7154 37.7878 94.0368L25.0147 101.304C25.2349 101.084 25.0147 101.304 24.7945 101.304ZM19.509 94.6975H23.4731C24.1338 94.6975 24.5743 95.1379 24.7945 95.7986L25.4552 99.102L37.3474 92.275C39.7699 90.9536 41.5317 88.9716 42.4126 86.3289L42.6328 85.8884C43.5137 83.6861 45.0553 81.7041 47.2575 80.603L51.4418 78.4007L51.0014 77.9602C49.4598 76.8591 47.9182 75.758 46.1564 74.8771L45.2755 74.4366L39.5496 77.74C38.008 78.6209 36.6867 80.1625 36.026 81.9243C34.9249 84.7873 32.9429 87.2098 30.3002 88.5311L19.509 94.6975Z" fill="#150035"/>
<path d="M33.1632 94.4772L30.7407 93.1558L31.6216 91.6143L34.0441 92.9356L33.1632 94.4772ZM29.6395 92.2749L27.217 90.9536L28.098 89.412L30.5204 90.7333L29.6395 92.2749Z" fill="#150035"/>
<path d="M69.0757 96.774L64.6836 99.297L65.3418 100.443L69.7339 97.9198L69.0757 96.774Z" fill="#150035"/>
<path d="M80.5005 103.629L76.3164 106.071L76.9825 107.213L81.1665 104.77L80.5005 103.629Z" fill="#150035"/>
<path d="M68.3994 98.0008C68.3994 98.0008 71.2623 104.167 80.0714 104.828L81.613 103.947L69.5005 97.3401L68.3994 98.0008Z" fill="#150035"/>
<path d="M216.171 65.8477C210.445 60.342 205.38 53.7352 192.387 46.2475C177.411 37.4385 168.162 43.3846 165.079 46.0273H164.638L78.7501 92.9355C78.7501 92.9355 74.5658 96.2389 74.786 99.7625L112.224 116.72L118.391 110.994C118.391 110.994 126.98 117.821 136.229 112.315C143.276 108.131 193.928 78.841 216.171 65.8477Z" fill="#150035"/>
<path d="M112.445 117.821L74.1254 100.203V99.7625C73.9052 95.7984 78.3097 92.2748 78.5299 92.2748H78.7502L165.079 45.1464H165.519C169.263 42.0632 178.513 36.7778 193.488 45.5868C203.839 51.5329 209.124 57.0386 213.749 61.6633C215.07 62.9847 216.171 64.0858 217.493 65.187L218.374 66.0679L137.11 113.196C128.962 118.041 121.254 113.637 119.052 112.315L112.445 117.821ZM75.667 99.1018L112.004 115.619L118.171 109.893L118.831 110.333C119.052 110.554 126.98 116.72 135.569 111.655L214.63 65.6274C213.749 64.7465 212.868 63.8656 211.767 62.7645C207.142 58.1397 201.857 52.8543 191.947 46.9082C177.632 38.5396 168.823 43.825 165.74 46.6879L165.519 46.9082H164.859L79.1906 93.5961C78.9704 94.0366 75.8872 96.4591 75.667 99.1018Z" fill="#150035"/>
<path d="M188.203 39.4204C179.614 35.6765 173.668 37.2182 169.924 39.8609L81.3931 91.3938C80.7325 91.614 80.292 92.0545 79.6313 92.2747H79.8516H79.6313L84.2561 90.2927C87.7797 89.4118 92.1842 89.632 97.6899 92.0545C115.088 99.5422 124.117 115.399 136.009 112.536L226.522 60.1217C214.63 62.7644 205.821 46.9081 188.203 39.4204Z" fill="white"/>
<path d="M133.146 113.637C126.98 113.637 121.695 109.232 115.528 104.387C110.463 100.423 104.737 95.7985 97.4697 92.7153C92.6248 90.7333 88.4404 90.0726 84.6966 90.9535H84.4763L80.0718 92.9355L79.1909 91.394C79.8516 90.9535 80.2921 90.7333 80.9528 90.2928L169.484 38.7599C173.007 36.3374 179.174 34.3553 188.423 38.3194C195.911 41.4026 201.857 46.2476 206.922 50.2117C213.969 55.9375 219.475 60.3421 226.082 58.8005L226.743 58.5803L227.403 60.1218L226.743 60.5623L136.45 113.417H136.23C135.128 113.637 134.248 113.637 133.146 113.637ZM88.2202 88.9715C91.3034 88.9715 94.6068 89.6321 98.1304 91.1737C105.618 94.2569 111.564 99.1019 116.629 103.066C123.677 108.572 129.182 113.196 135.789 111.655L222.779 61.223C217.053 60.7825 211.987 56.5982 206.041 51.9735C200.976 48.0094 195.25 43.3846 187.983 40.3015C181.156 37.4385 175.21 37.4385 170.585 40.7419L87.3393 88.9715C87.7798 88.9715 88 88.9715 88.2202 88.9715Z" fill="#150035"/>
<path d="M186.441 38.7597C178.733 35.8967 173.228 37.4383 169.924 39.8608L81.1729 91.3937C80.5122 91.614 80.0718 92.0544 79.4111 92.2746H79.6314H79.4111L84.0359 90.2926C87.5595 89.4117 91.9641 89.6319 97.4697 92.0544C102.315 94.2567 106.719 96.8994 110.463 99.7623C106.719 96.8994 102.315 94.2567 97.4697 92.0544C96.809 91.8342 96.1483 91.3937 95.4876 91.1735L186.441 38.7597Z" fill="#FFB000"/>
<path d="M110.683 100.643L110.023 100.423C107.16 98.2209 102.535 95.1377 97.2495 92.7152C92.4045 90.7332 88.2202 90.0725 84.4763 90.9534L80.0718 92.9354L79.1909 91.3938C79.8516 90.9534 80.2921 90.7331 80.9528 90.2927L169.484 38.7597C172.787 36.5575 178.293 34.5754 186.882 37.6586L186.221 39.4204C180.055 37.2181 174.769 37.4384 170.365 40.3013L87.1191 88.5309C89.7618 88.3106 92.845 88.9713 95.9281 90.0725C96.5888 90.2927 97.2495 90.5129 97.9102 90.9534C103.416 93.3759 108.041 96.459 111.124 98.6613L112.225 99.5422L110.683 100.643Z" fill="#150035"/>
<path d="M113.766 64.5263C113.766 64.5263 111.344 57.9195 98.7908 46.688C86.2379 35.4565 69.9412 33.6947 69.7209 33.6947L69.9412 32.3733C70.1614 32.3733 86.8986 34.1351 99.6717 45.8071C112.445 57.4791 114.867 64.0859 114.867 64.3061L113.766 64.5263Z" fill="#150035"/>
<path d="M120.153 61.223C120.153 61.223 117.73 54.6162 105.177 43.3847C92.6244 32.1531 76.3276 30.3913 76.1074 30.3913L76.3277 29.0699C76.5479 29.0699 93.2851 30.8318 106.058 42.5038C118.831 54.1758 121.254 60.7825 121.254 61.0028L120.153 61.223Z" fill="#150035"/>
<path d="M125.438 57.9196C125.438 57.9196 123.016 51.3128 110.463 40.0813C107.82 37.6588 106.058 36.3374 103.416 34.7958L104.076 33.6947C106.719 35.2363 108.701 36.5576 111.344 39.2004C124.117 50.8724 126.54 57.4791 126.54 57.6994L125.438 57.9196Z" fill="#150035"/>
<path d="M130.724 54.6162C130.724 54.6162 128.301 48.0094 115.748 36.7779C113.766 35.0161 111.784 33.4745 109.362 31.9329L110.022 30.8318C112.445 32.3734 114.647 33.9149 116.629 35.6768C129.402 47.3488 131.825 53.9556 131.825 54.1758L130.724 54.6162Z" fill="#150035"/>
<path d="M136.009 51.3128C136.009 51.3128 133.586 44.706 121.034 33.4744C119.051 31.7126 116.849 29.9508 114.647 28.6295L115.308 27.5283C117.73 29.0699 119.932 30.8317 121.914 32.5935C134.688 44.2655 137.11 50.8723 137.11 51.0925L136.009 51.3128Z" fill="#150035"/>
<path d="M142.395 48.0093C142.395 48.0093 139.973 41.4025 127.42 30.1709C125.658 28.4091 123.456 26.8676 121.254 25.5462L121.914 24.4451C124.117 25.9867 126.319 27.5282 128.301 29.29C141.074 40.962 143.497 47.5688 143.497 47.789L142.395 48.0093Z" fill="#150035"/>
<path d="M147.681 44.706C147.681 44.706 145.258 38.0992 132.705 26.8676C130.723 25.1058 128.521 23.5642 126.319 22.0226L126.98 20.9215C129.402 22.4631 131.604 24.2249 133.586 25.9867C146.359 37.6587 148.782 44.2655 148.782 44.4857L147.681 44.706Z" fill="#150035"/>
<path d="M136.669 103.507C131.824 103.507 125.878 98.8818 119.932 93.8166C117.95 92.0548 115.748 90.5132 113.546 88.9716L114.206 87.8705C116.409 89.4121 118.611 90.9537 120.593 92.7155C127.2 98.2211 133.807 103.507 138.211 101.745L138.651 103.066C138.211 103.507 137.55 103.507 136.669 103.507Z" fill="#150035"/>
<path d="M142.836 99.9827C137.991 99.9827 132.045 95.358 126.099 90.2928C123.897 88.531 121.695 86.7692 119.492 85.4478L120.153 84.3467C122.355 85.8883 124.558 87.4299 126.76 89.4119C133.367 94.9175 139.973 100.203 144.378 98.4412L144.818 99.7625C144.378 99.9827 143.497 99.9827 142.836 99.9827Z" fill="#150035"/>
<path d="M148.782 96.4592C143.937 96.4592 137.991 91.8344 132.045 86.7692C130.063 85.0074 128.081 83.4658 125.879 82.1445L126.76 81.0433C128.742 82.3647 130.944 84.1265 132.926 85.6681C139.533 91.1737 146.139 96.4592 150.544 94.6974L150.984 96.0187C150.324 96.4592 149.663 96.4592 148.782 96.4592Z" fill="#150035"/>
<path d="M154.508 92.7152C149.663 92.7152 143.717 88.0904 137.771 83.0252C128.521 75.0971 121.474 73.115 121.474 73.115L121.915 71.7937C122.135 71.7937 129.182 73.9959 138.652 81.9241C145.259 87.4297 151.865 92.7152 156.27 90.9534L156.71 92.2747C156.05 92.7152 155.389 92.7152 154.508 92.7152Z" fill="#150035"/>
<path d="M160.675 89.1916C155.83 89.1916 149.883 84.5669 143.937 79.5017C134.688 71.5735 127.641 69.5915 127.641 69.5915L128.081 68.2701C128.301 68.2701 135.349 70.4724 144.818 78.4006C151.425 83.9062 158.032 89.1916 162.436 87.4298L162.877 88.7512C162.216 89.1916 161.335 89.1916 160.675 89.1916Z" fill="#150035"/>
<path d="M166.841 85.6681C161.996 85.6681 156.05 81.0433 150.104 75.9781C140.854 68.05 133.807 66.068 133.807 66.068L134.247 64.7466C134.468 64.7466 141.515 66.9489 150.985 74.877C157.591 80.3827 164.198 85.6681 168.603 83.9063L169.043 85.2276C168.603 85.6681 167.722 85.6681 166.841 85.6681Z" fill="#150035"/>
<path d="M139.973 138.082L75.2264 100.643C74.5658 100.203 74.1253 99.1019 74.5657 98.6614C77.4287 96.0187 86.6782 89.8524 101.874 98.6614C121.914 110.333 123.016 120.023 137.771 126.63L139.973 138.082Z" fill="#FFB000"/>
<path d="M139.973 139.183L139.533 138.963L74.7862 101.524C74.1255 101.084 73.6851 100.423 73.4648 99.5422C73.4648 98.8816 73.4649 98.4411 73.9053 98.2209C76.548 95.7984 86.4582 88.9714 102.315 98.2209C112.665 104.167 117.951 109.673 122.575 114.297C126.98 118.922 130.944 122.886 138.211 126.19L138.652 126.41L138.872 126.85L141.074 138.743L139.973 139.183ZM75.4469 99.322C75.4469 99.5423 75.6671 99.7625 75.8873 99.7625L138.872 136.1L137.11 127.291C129.843 123.987 125.879 120.023 121.254 115.399C116.629 110.774 111.344 105.488 101.434 99.5422C87.3391 91.3939 78.5301 96.6793 75.4469 99.322Z" fill="#150035"/>
<path d="M138.432 131.475C138.211 131.475 130.504 129.493 120.593 119.142C112.885 110.994 95.0471 91.8343 77.2087 102.405L76.5481 101.304C95.2673 90.2928 113.766 109.893 121.694 118.482C131.164 128.612 138.652 130.374 138.652 130.374L138.432 131.475Z" fill="#150035"/>
<path d="M139.092 133.897C138.872 133.897 131.384 133.017 121.914 123.987C120.813 122.886 119.492 121.565 118.171 120.243C108.921 110.994 96.148 98.2208 81.8333 104.828L81.1726 103.506C96.3682 96.459 109.582 109.673 119.052 119.142C120.373 120.464 121.694 121.785 122.795 122.886C131.825 131.475 139.092 132.356 139.092 132.356V133.897Z" fill="#150035"/>
<path d="M125.659 130.594C125.659 130.594 115.528 121.124 108.04 114.297C100.333 107.47 93.2853 105.488 87.5594 108.131L86.8987 106.81C93.065 103.727 100.773 105.929 108.921 113.196C116.629 120.023 126.539 129.493 126.539 129.493L125.659 130.594Z" fill="#150035"/>
<path d="M116.409 125.089C116.409 125.089 108.481 116.72 102.314 113.637C96.5883 110.554 93.0647 111.655 93.0647 111.655L92.6243 110.333C92.8445 110.333 96.5884 109.012 102.975 112.536C109.141 115.839 117.069 123.987 117.29 124.428L116.409 125.089Z" fill="#150035"/>
</svg>
