<svg width="168" height="147" viewBox="0 0 168 147" fill="none" xmlns="http://www.w3.org/2000/svg">
<path d="M4.76638 123.159L2.92871 124.307C2.699 124.307 2.46928 124.307 2.23957 124.307L0.401896 123.389C0.172187 123.159 0.172187 123.159 0.401896 122.929L2.23957 121.781C2.46928 121.781 2.699 121.781 2.92871 121.781L4.76638 122.699C4.99609 122.699 4.99609 122.929 4.76638 123.159Z" fill="#150035"/>
<path d="M9.13073 125.686L7.29305 126.834C7.06334 126.834 6.83366 126.834 6.60395 126.834L4.76628 125.915C4.53657 125.686 4.53657 125.686 4.76628 125.456L6.60395 124.307C6.83366 124.307 7.06334 124.307 7.29305 124.307L9.13073 125.226C9.36044 125.226 9.36044 125.456 9.13073 125.686Z" fill="#150035"/>
<path d="M4.53673 128.212L2.69906 129.361C2.46935 129.361 2.23967 129.361 2.00996 129.361L0.172282 128.442C-0.0574272 128.212 -0.0574272 128.212 0.172282 127.983L2.00996 126.834C2.23967 126.834 2.46935 126.834 2.69906 126.834L4.53673 127.753C4.76644 127.983 4.76644 128.212 4.53673 128.212Z" fill="#150035"/>
<path d="M13.4955 128.212L11.6578 129.361C11.4281 129.361 11.1984 129.361 10.9687 129.361L9.13102 128.442C8.90131 128.212 8.90131 128.212 9.13102 127.983L10.9687 126.834C11.1984 126.834 11.4281 126.834 11.6578 126.834L13.4955 127.753C13.4955 127.753 13.7252 127.983 13.4955 128.212Z" fill="#150035"/>
<path d="M8.90127 130.739L7.06359 131.888C6.83389 131.888 6.60417 131.888 6.37446 131.888L4.53678 130.969C4.30707 130.739 4.30707 130.739 4.53678 130.51L6.37446 129.361C6.60417 129.361 6.83389 129.361 7.06359 129.361L8.90127 130.28C8.90127 130.51 9.13098 130.739 8.90127 130.739Z" fill="#150035"/>
<path d="M18.0897 130.739L16.2521 131.888C16.0224 131.888 15.7926 131.888 15.5629 131.888L13.7253 130.969C13.4956 130.739 13.4956 130.739 13.7253 130.51L15.5629 129.361C15.7926 129.361 16.0224 129.361 16.2521 129.361L18.0897 130.28C18.0897 130.51 18.3195 130.739 18.0897 130.739Z" fill="#150035"/>
<path d="M13.4955 133.496L11.6578 134.644C11.4281 134.644 11.1984 134.644 10.9687 134.644L9.13102 133.726C8.90131 133.496 8.90131 133.496 9.13102 133.266L10.9687 132.118C11.1984 132.118 11.4281 132.118 11.6578 132.118L13.4955 133.036C13.4955 133.036 13.7252 133.266 13.4955 133.496Z" fill="#150035"/>
<path d="M22.4542 133.266L20.6165 134.415C20.3868 134.415 20.1571 134.415 19.9274 134.415L18.0898 133.496C17.8601 133.266 17.8601 133.266 18.0898 133.036L19.9274 131.888C20.1571 131.888 20.3868 131.888 20.6165 131.888L22.4542 132.807C22.4542 133.036 22.4542 133.036 22.4542 133.266Z" fill="#150035"/>
<path d="M17.86 135.793L16.0223 136.941C15.7926 136.941 15.5629 136.941 15.3332 136.941L13.4955 136.023C13.2658 135.793 13.2658 135.793 13.4955 135.563L15.3332 134.415C15.5629 134.415 15.7926 134.415 16.0223 134.415L17.86 135.333C17.86 135.563 18.0897 135.793 17.86 135.793Z" fill="#150035"/>
<path d="M26.5888 135.793L24.7511 136.941C24.5214 136.941 24.2917 136.941 24.062 136.941L22.2243 136.023C21.9946 135.793 21.9946 135.793 22.2243 135.563L24.062 134.415C24.2917 134.415 24.5214 134.415 24.7511 134.415L26.5888 135.333C26.8185 135.563 26.8185 135.563 26.5888 135.793Z" fill="#150035"/>
<path d="M22.2242 138.32L20.3866 139.468C20.1569 139.468 19.9272 139.468 19.6975 139.468L17.8598 138.549C17.6301 138.32 17.6301 138.32 17.8598 138.09L19.6975 136.941C19.9272 136.941 20.1569 136.941 20.3866 136.941L22.2242 137.86C22.2242 138.09 22.2242 138.32 22.2242 138.32Z" fill="#150035"/>
<path d="M31.183 138.32L29.3453 139.468C29.1156 139.468 28.8859 139.468 28.6562 139.468L26.8185 138.549C26.5888 138.32 26.5888 138.32 26.8185 138.09L28.6562 136.941C28.8859 136.941 29.1156 136.941 29.3453 136.941L31.183 137.86C31.4127 138.09 31.4127 138.32 31.183 138.32Z" fill="#150035"/>
<path d="M26.8182 141.076L24.9806 142.225C24.7509 142.225 24.5212 142.225 24.2915 142.225L22.4538 141.306C22.2241 141.076 22.2241 141.076 22.4538 140.847L24.2915 139.698C24.5212 139.698 24.7509 139.698 24.9806 139.698L26.8182 140.617C26.8182 140.847 26.8182 140.847 26.8182 141.076Z" fill="#150035"/>
<path d="M35.5472 140.847L33.7096 141.995C33.4798 141.995 33.2502 141.995 33.0205 141.995L31.1828 141.076C30.9531 140.847 30.9531 140.847 31.1828 140.617L33.0205 139.468C33.2502 139.468 33.4798 139.468 33.7096 139.468L35.5472 140.387C35.7769 140.617 35.7769 140.847 35.5472 140.847Z" fill="#150035"/>
<path d="M30.9532 143.603L29.1156 144.752C28.8859 144.752 28.6562 144.752 28.4265 144.752L26.5888 143.833C26.3591 143.603 26.3591 143.603 26.5888 143.373L28.4265 142.225C28.6562 142.225 28.8859 142.225 29.1156 142.225L30.9532 143.144C31.1829 143.373 31.1829 143.373 30.9532 143.603Z" fill="#150035"/>
<path d="M39.912 143.373L38.0743 144.522C37.8446 144.522 37.6149 144.522 37.3852 144.522L35.5475 143.603C35.3178 143.373 35.3178 143.373 35.5475 143.144L37.3852 141.995C37.6149 141.995 37.8446 141.995 38.0743 141.995L39.912 142.914C40.1417 143.144 40.1417 143.373 39.912 143.373Z" fill="#150035"/>
<path d="M35.3178 146.13L33.4801 147.278C33.2504 147.278 33.0207 147.278 32.791 147.278L30.9533 146.36C30.7236 146.13 30.7236 146.13 30.9533 145.9L32.791 144.752C33.0207 144.752 33.2504 144.752 33.4801 144.752L35.3178 145.67C35.5475 145.67 35.5475 145.9 35.3178 146.13Z" fill="#150035"/>
<path d="M44.506 146.13L42.6683 147.278C42.4386 147.278 42.2089 147.278 41.9792 147.278L40.1415 146.36C39.9118 146.13 39.9118 146.13 40.1415 145.9L41.9792 144.752C42.2089 144.752 42.4386 144.752 42.6683 144.752L44.506 145.67C44.7357 145.67 44.7357 145.9 44.506 146.13Z" fill="#150035"/>
<path d="M71.6114 145.9L69.7738 147.049C69.5441 147.049 69.3143 147.049 69.0846 147.049L67.247 146.13C67.0173 145.9 67.0173 145.9 67.247 145.67L69.0846 144.522C69.3143 144.522 69.5441 144.522 69.7738 144.522L71.6114 145.441C71.8412 145.441 71.8412 145.67 71.6114 145.9Z" fill="#150035"/>
<path d="M76.2057 143.144L74.368 144.292C74.1383 144.292 73.9086 144.292 73.6789 144.292L71.8412 143.373C71.6115 143.144 71.6115 143.144 71.8412 142.914L73.6789 141.765C73.9086 141.765 74.1383 141.765 74.368 141.765L76.2057 142.684C76.2057 142.914 76.4354 143.144 76.2057 143.144Z" fill="#150035"/>
<path d="M80.7999 140.617L78.9623 141.765C78.7326 141.765 78.5028 141.765 78.2731 141.765L76.4355 140.846C76.2058 140.617 76.2058 140.617 76.4355 140.387L78.2731 139.239C78.5028 139.239 78.7326 139.239 78.9623 139.239L80.7999 140.157C80.7999 140.157 81.0296 140.387 80.7999 140.617Z" fill="#150035"/>
<path d="M85.3942 137.86L83.5565 139.009C83.3268 139.009 83.0971 139.009 82.8673 139.009L81.0297 138.09C80.8 137.86 80.8 137.86 81.0297 137.63L82.8673 136.482C83.0971 136.482 83.3268 136.482 83.5565 136.482L85.3942 137.401C85.3942 137.63 85.3942 137.86 85.3942 137.86Z" fill="#150035"/>
<path d="M89.9884 135.333L88.1508 136.482C87.921 136.482 87.6913 136.482 87.4616 136.482L85.6239 135.563C85.3942 135.333 85.3942 135.333 85.6239 135.104L87.4616 133.955C87.6913 133.955 87.921 133.955 88.1508 133.955L89.9884 134.874C89.9884 134.874 89.9884 135.104 89.9884 135.333Z" fill="#150035"/>
<path d="M94.3529 132.577L92.5153 133.726C92.2855 133.726 92.0559 133.726 91.8262 133.726L89.9884 132.807C89.7587 132.577 89.7587 132.577 89.9884 132.347L91.8262 131.199C92.0559 131.199 92.2855 131.199 92.5153 131.199L94.3529 132.118C94.5826 132.347 94.5826 132.577 94.3529 132.577Z" fill="#150035"/>
<path d="M98.9471 130.05L97.1095 131.199C96.8798 131.199 96.6501 131.199 96.4204 131.199L94.5827 130.28C94.353 130.05 94.353 130.05 94.5827 129.821L96.4204 128.672C96.6501 128.672 96.8798 128.672 97.1095 128.672L98.9471 129.591C99.1768 129.591 99.1768 129.821 98.9471 130.05Z" fill="#150035"/>
<path d="M103.541 127.294L101.703 128.442C101.474 128.442 101.244 128.442 101.014 128.442L99.1767 127.523C98.947 127.294 98.947 127.294 99.1767 127.064L101.014 125.915C101.244 125.915 101.474 125.915 101.703 125.915L103.541 126.834C103.771 127.064 103.771 127.294 103.541 127.294Z" fill="#150035"/>
<path d="M108.135 124.767L106.297 125.915C106.068 125.915 105.838 125.915 105.608 125.915L103.771 124.997C103.541 124.767 103.541 124.767 103.771 124.537L105.608 123.389C105.838 123.389 106.068 123.389 106.297 123.389L108.135 124.307C108.365 124.307 108.365 124.537 108.135 124.767Z" fill="#150035"/>
<path d="M112.729 122.01L110.892 123.159C110.662 123.159 110.432 123.159 110.203 123.159L108.365 122.24C108.135 122.01 108.135 122.01 108.365 121.781L110.203 120.632C110.432 120.632 110.662 120.632 110.892 120.632L112.729 121.551C112.959 121.781 112.959 122.01 112.729 122.01Z" fill="#150035"/>
<path d="M117.324 119.483L115.486 120.632C115.256 120.632 115.027 120.632 114.797 120.632L112.959 119.713C112.729 119.484 112.729 119.483 112.959 119.254L114.797 118.105C115.027 118.105 115.256 118.105 115.486 118.105L117.324 119.024C117.553 119.024 117.553 119.254 117.324 119.483Z" fill="#150035"/>
<path d="M121.918 116.727L120.08 117.876C119.85 117.876 119.621 117.876 119.391 117.876L117.553 116.957C117.324 116.727 117.324 116.727 117.553 116.497L119.391 115.349C119.621 115.349 119.85 115.349 120.08 115.349L121.918 116.268C122.148 116.497 122.148 116.727 121.918 116.727Z" fill="#150035"/>
<path d="M126.512 114.2L124.674 115.349C124.445 115.349 124.215 115.349 123.985 115.349L122.148 114.43C121.918 114.2 121.918 114.2 122.148 113.971L123.985 112.822C124.215 112.822 124.445 112.822 124.674 112.822L126.512 113.741C126.742 113.741 126.742 113.971 126.512 114.2Z" fill="#150035"/>
<path d="M80.5704 145.67L78.7328 146.819C78.5031 146.819 78.2734 146.819 78.0437 146.819L76.206 145.9C75.9763 145.67 75.9763 145.67 76.206 145.441L78.0437 144.292C78.2734 144.292 78.5031 144.292 78.7328 144.292L80.5704 145.211C80.5704 145.441 80.8001 145.67 80.5704 145.67Z" fill="#150035"/>
<path d="M85.1644 143.144L83.3268 144.292C83.0971 144.292 82.8674 144.292 82.6377 144.292L80.8 143.373C80.5703 143.144 80.5703 143.144 80.8 142.914L82.6377 141.765C82.8674 141.765 83.0971 141.765 83.3268 141.765L85.1644 142.684C85.1644 142.684 85.1644 142.914 85.1644 143.144Z" fill="#150035"/>
<path d="M89.529 140.387L87.6913 141.536C87.4616 141.536 87.2319 141.536 87.0022 141.536L85.1645 140.617C84.9348 140.387 84.9348 140.387 85.1645 140.157L87.0022 139.009C87.2319 139.009 87.4616 139.009 87.6913 139.009L89.529 139.928C89.7587 140.157 89.7587 140.387 89.529 140.387Z" fill="#150035"/>
<path d="M94.1235 137.86L92.2858 139.009C92.0561 139.009 91.8264 139.009 91.5967 139.009L89.759 138.09C89.5292 137.86 89.5292 137.86 89.759 137.63L91.5967 136.482C91.8264 136.482 92.0561 136.482 92.2858 136.482L94.1235 137.401C94.3532 137.401 94.3532 137.63 94.1235 137.86Z" fill="#150035"/>
<path d="M98.7172 135.104L96.8795 136.252C96.6498 136.252 96.4201 136.252 96.1904 136.252L94.3527 135.333C94.123 135.104 94.123 135.104 94.3527 134.874L96.1904 133.725C96.4201 133.725 96.6498 133.725 96.8795 133.725L98.7172 134.644C98.9469 134.874 98.9469 135.104 98.7172 135.104Z" fill="#150035"/>
<path d="M103.312 132.577L101.474 133.726C101.244 133.726 101.015 133.726 100.785 133.726L98.9472 132.807C98.7175 132.577 98.7175 132.577 98.9472 132.347L100.785 131.199C101.015 131.199 101.244 131.199 101.474 131.199L103.312 132.118C103.541 132.118 103.541 132.347 103.312 132.577Z" fill="#150035"/>
<path d="M107.906 129.82L106.068 130.969C105.838 130.969 105.609 130.969 105.379 130.969L103.541 130.05C103.311 129.82 103.311 129.82 103.541 129.591L105.379 128.442C105.609 128.442 105.838 128.442 106.068 128.442L107.906 129.361C108.135 129.591 108.135 129.82 107.906 129.82Z" fill="#150035"/>
<path d="M112.5 127.294L110.662 128.442C110.433 128.442 110.203 128.442 109.973 128.442L108.135 127.523C107.906 127.294 107.906 127.294 108.135 127.064L109.973 125.915C110.203 125.915 110.433 125.915 110.662 125.915L112.5 126.834C112.73 126.834 112.73 127.064 112.5 127.294Z" fill="#150035"/>
<path d="M117.094 124.537L115.256 125.686C115.027 125.686 114.797 125.686 114.567 125.686L112.73 124.767C112.5 124.537 112.5 124.537 112.73 124.307L114.567 123.159C114.797 123.159 115.027 123.159 115.256 123.159L117.094 124.078C117.324 124.307 117.324 124.537 117.094 124.537Z" fill="#150035"/>
<path d="M121.688 122.01L119.85 123.159C119.621 123.159 119.391 123.159 119.161 123.159L117.324 122.24C117.094 122.01 117.094 122.01 117.324 121.781L119.161 120.632C119.391 120.632 119.621 120.632 119.85 120.632L121.688 121.551C121.918 121.551 121.918 121.781 121.688 122.01Z" fill="#150035"/>
<path d="M126.282 119.254L124.445 120.402C124.215 120.402 123.985 120.402 123.756 120.402L121.918 119.484C121.688 119.254 121.688 119.254 121.918 119.024L123.756 117.876C123.985 117.876 124.215 117.876 124.445 117.876L126.282 118.794C126.512 119.024 126.512 119.254 126.282 119.254Z" fill="#150035"/>
<path d="M130.877 116.727L129.039 117.876C128.809 117.876 128.58 117.876 128.35 117.876L126.512 116.957C126.282 116.727 126.282 116.727 126.512 116.497L128.35 115.349C128.58 115.349 128.809 115.349 129.039 115.349L130.877 116.268C130.877 116.268 131.106 116.497 130.877 116.727Z" fill="#150035"/>
<path d="M135.7 108.917L133.863 110.065C133.633 110.065 133.403 110.065 133.174 110.065L131.336 109.147C131.106 108.917 131.106 108.917 131.336 108.687L133.174 107.539C133.403 107.539 133.633 107.539 133.863 107.539L135.7 108.458C135.7 108.458 135.7 108.687 135.7 108.917Z" fill="#150035"/>
<path d="M131.106 111.444L129.269 112.592C129.039 112.592 128.809 112.592 128.58 112.592L126.742 111.673C126.512 111.444 126.512 111.444 126.742 111.214L128.58 110.065C128.809 110.065 129.039 110.065 129.269 110.065L131.106 110.984C131.106 111.214 131.106 111.444 131.106 111.444Z" fill="#150035"/>
<path d="M140.065 106.16L138.227 107.309C137.998 107.309 137.768 107.309 137.538 107.309L135.701 106.39C135.471 106.16 135.471 106.16 135.701 105.931L137.538 104.782C137.768 104.782 137.998 104.782 138.227 104.782L140.065 105.701C140.295 105.931 140.295 106.16 140.065 106.16Z" fill="#150035"/>
<path d="M144.659 103.634L142.822 104.782C142.592 104.782 142.362 104.782 142.133 104.782L140.295 103.863C140.065 103.634 140.065 103.634 140.295 103.404L142.133 102.255C142.362 102.255 142.592 102.255 142.822 102.255L144.659 103.174C144.889 103.174 144.889 103.404 144.659 103.634Z" fill="#150035"/>
<path d="M149.253 100.877L147.416 102.026C147.186 102.026 146.956 102.026 146.727 102.026L144.889 101.107C144.659 100.877 144.659 100.877 144.889 100.647L146.727 99.4989C146.956 99.4989 147.186 99.4989 147.416 99.4989L149.253 100.418C149.483 100.647 149.483 100.877 149.253 100.877Z" fill="#150035"/>
<path d="M153.848 98.3503L152.01 99.4989C151.78 99.4989 151.55 99.4989 151.321 99.4989L149.483 98.58C149.253 98.3503 149.253 98.3503 149.483 98.1206L151.321 96.972C151.55 96.972 151.78 96.972 152.01 96.972L153.848 97.8909C154.077 97.8909 154.077 98.1206 153.848 98.3503Z" fill="#150035"/>
<path d="M158.442 95.594L156.604 96.7425C156.374 96.7425 156.144 96.7425 155.915 96.7425L154.077 95.8237C153.847 95.5939 153.847 95.594 154.077 95.3642L155.915 94.2157C156.144 94.2157 156.374 94.2157 156.604 94.2157L158.442 95.1345C158.671 95.3642 158.671 95.594 158.442 95.594Z" fill="#150035"/>
<path d="M163.036 93.067L161.198 94.2155C160.968 94.2155 160.739 94.2155 160.509 94.2155L158.671 93.2967C158.442 93.067 158.442 93.067 158.671 92.8373L160.509 91.6887C160.739 91.6887 160.968 91.6887 161.198 91.6887L163.036 92.6076C163.266 92.6076 163.266 92.8373 163.036 93.067Z" fill="#150035"/>
<path d="M167.63 90.3106L165.792 91.4592C165.563 91.4592 165.333 91.4592 165.103 91.4592L163.266 90.5403C163.036 90.3106 163.036 90.3106 163.266 90.0809L165.103 88.9324C165.333 88.9324 165.563 88.9324 165.792 88.9324L167.63 89.8512C167.86 90.0809 167.86 90.3106 167.63 90.3106Z" fill="#150035"/>
<path d="M139.835 111.444L137.998 112.592C137.768 112.592 137.538 112.592 137.309 112.592L135.471 111.673C135.241 111.444 135.241 111.444 135.471 111.214L137.309 110.065C137.538 110.065 137.768 110.065 137.998 110.065L139.835 110.984C140.065 110.984 140.065 111.214 139.835 111.444Z" fill="#150035"/>
<path d="M135.471 113.971L133.633 115.119C133.403 115.119 133.174 115.119 132.944 115.119L131.106 114.2C130.877 113.971 130.877 113.971 131.106 113.741L132.944 112.592C133.174 112.592 133.403 112.592 133.633 112.592L135.471 113.511C135.471 113.741 135.471 113.971 135.471 113.971Z" fill="#150035"/>
<path d="M144.429 108.687L142.592 109.836C142.362 109.836 142.132 109.836 141.903 109.836L140.065 108.917C139.835 108.687 139.835 108.687 140.065 108.458L141.903 107.309C142.132 107.309 142.362 107.309 142.592 107.309L144.429 108.228C144.659 108.458 144.659 108.687 144.429 108.687Z" fill="#150035"/>
<path d="M149.024 106.16L147.186 107.309C146.956 107.309 146.726 107.309 146.497 107.309L144.659 106.39C144.429 106.16 144.429 106.16 144.659 105.931L146.497 104.782C146.726 104.782 146.956 104.782 147.186 104.782L149.024 105.701C149.253 105.701 149.253 105.931 149.024 106.16Z" fill="#150035"/>
<path d="M153.618 103.404L151.78 104.552C151.55 104.552 151.321 104.552 151.091 104.552L149.253 103.634C149.024 103.404 149.024 103.404 149.253 103.174L151.091 102.026C151.321 102.026 151.55 102.026 151.78 102.026L153.618 102.944C153.847 103.174 153.847 103.404 153.618 103.404Z" fill="#150035"/>
<path d="M158.212 100.877L156.374 102.026C156.145 102.026 155.915 102.026 155.685 102.026L153.848 101.107C153.618 100.877 153.618 100.877 153.848 100.647L155.685 99.4989C155.915 99.4989 156.145 99.4989 156.374 99.4989L158.212 100.418C158.442 100.418 158.442 100.647 158.212 100.877Z" fill="#150035"/>
<path d="M162.806 98.1207L160.968 99.2692C160.739 99.2692 160.509 99.2692 160.279 99.2692L158.442 98.3504C158.212 98.1207 158.212 98.1207 158.442 97.891L160.279 96.7424C160.509 96.7424 160.739 96.7424 160.968 96.7424L162.806 97.6613C163.036 97.891 163.036 98.1207 162.806 98.1207Z" fill="#150035"/>
<path d="M167.4 95.594L165.563 96.7425C165.333 96.7425 165.103 96.7425 164.873 96.7425L163.036 95.8237C162.806 95.5939 162.806 95.594 163.036 95.3642L164.873 94.2157C165.103 94.2157 165.333 94.2157 165.563 94.2157L167.4 95.1345C167.63 95.1345 167.63 95.3643 167.4 95.594Z" fill="#150035"/>
<path d="M6.37474 119.943L47.7223 143.603C52.0868 146.13 59.8969 145.9 64.9505 142.914L159.131 88.2431C164.185 85.2569 165.563 77.6766 161.198 75.1498L118.932 55.8542C114.568 53.3274 106.757 53.5572 101.704 56.5434L6.14502 107.079C1.09143 109.836 1.78057 117.416 6.37474 119.943Z" fill="#150035"/>
<path d="M47.2626 144.292L5.91505 120.632C3.38826 119.254 2.01001 116.497 2.01001 113.511C2.01001 110.525 3.38826 107.998 5.91505 106.39L101.474 55.8543C106.757 52.868 114.797 52.4086 119.391 55.1651L161.658 74.4606C163.495 75.6092 164.644 77.6766 164.644 80.2034C164.644 83.649 162.576 87.0946 159.59 88.9323L65.4096 143.603C62.4234 145.211 58.7481 146.13 55.3024 146.13C52.3162 146.13 49.33 145.441 47.2626 144.292ZM102.163 57.0028L6.60418 107.539C4.53681 108.687 3.38824 110.755 3.38824 113.281C3.38824 115.808 4.53681 118.105 6.60418 119.024L47.9518 142.684C52.0865 145.211 59.6669 144.752 64.4907 141.995L158.671 87.3243C161.198 85.9461 163.036 82.9599 163.036 79.9737C163.036 78.8251 162.806 76.7577 160.739 75.6092L118.472 56.3137C116.635 55.1651 114.108 54.7057 111.351 54.7057C108.365 54.7057 104.92 55.3948 102.163 57.0028Z" fill="#150035"/>
<path d="M6.37445 116.038L47.722 139.698C52.0865 142.225 59.8966 141.995 64.9502 139.009L159.131 84.3381C164.184 81.3519 164.873 76.9874 160.279 74.4606L118.932 50.8007C114.567 48.2739 106.757 48.5035 101.704 51.4898L7.523 106.16C2.4694 109.147 1.78028 113.511 6.37445 116.038Z" fill="white"/>
<path d="M47.2626 140.617L5.91499 116.957C3.84761 115.808 2.46936 113.971 2.46936 111.903C2.46936 109.606 4.07732 107.309 7.06354 105.701L101.244 51.0304C106.527 48.0442 114.567 47.5848 119.161 50.3413L160.509 74.0013C162.576 75.1498 163.955 76.9875 163.955 79.0549C163.955 81.3519 162.347 83.6491 159.36 85.257L65.1799 139.928C62.1936 141.536 58.5183 142.454 55.0727 142.454C52.3161 142.454 49.3299 141.765 47.2626 140.617ZM102.163 52.1789L7.98236 106.85C5.45556 108.228 4.07731 110.066 4.07731 111.903C4.07731 113.281 4.99616 114.66 6.60413 115.579L47.9517 139.239C52.0865 141.765 59.6668 141.306 64.4907 138.549L158.671 83.8788C161.198 82.5005 162.576 80.6628 162.576 78.8252C162.576 77.4469 161.658 76.0687 160.05 75.1498L118.702 51.4898C116.864 50.3413 114.337 49.8819 111.581 49.8819C108.365 49.6521 104.919 50.571 102.163 52.1789Z" fill="#150035"/>
<path d="M116.175 53.7868L120.77 56.5434C121.688 57.0028 121.688 57.9216 120.77 58.6107C119.851 59.0702 119.851 59.989 120.77 60.6781L143.281 73.5418C144.2 74.0012 145.808 74.0012 146.727 73.5418C147.646 73.0824 149.254 73.0824 150.172 73.5418L154.767 76.2983C157.982 78.136 157.982 80.8925 154.767 82.7302L61.275 136.941C58.0591 138.779 53.2352 138.779 50.0193 136.941L10.9688 114.66C7.7529 112.822 7.7529 110.066 10.9688 108.228L104.46 54.0166C108.136 51.9492 113.189 51.9492 116.175 53.7868Z" fill="white"/>
<path d="M61.275 136.482L152.01 83.8787L149.024 82.2708C148.105 81.8114 146.497 81.8114 145.578 82.2708C144.659 82.7302 143.051 82.7302 142.132 82.2708L119.621 69.4071C118.702 68.9477 118.702 68.0289 119.621 67.3397C120.54 66.8803 120.54 65.9615 119.621 65.2723L115.027 62.5158C111.811 60.6782 106.757 60.6782 103.771 62.5158L13.0361 115.119L50.249 136.482C53.2352 138.32 58.2888 138.32 61.275 136.482Z" fill="#FFB000"/>
<path d="M50.2489 137.63L11.1984 115.349C9.36076 114.43 8.44189 113.052 8.44189 111.444C8.44189 109.836 9.36076 108.458 11.1984 107.539L104.69 53.3274C108.135 51.26 113.419 51.26 116.635 53.3274L121.229 56.0839C121.918 56.5433 122.377 57.0028 122.377 57.6919C122.377 58.381 121.918 59.0701 121.229 59.2998C120.999 59.5295 120.999 59.5295 120.999 59.7592C120.999 59.7592 120.999 59.9889 121.459 60.2187L143.97 73.0824C144.659 73.5418 146.037 73.5418 146.727 73.0824C147.875 72.3932 149.713 72.3932 151.091 73.0824L155.685 75.8389C157.523 76.7577 158.442 78.1359 158.442 79.7439C158.442 81.3519 157.523 82.7301 155.685 83.6489L62.1937 137.86C60.5858 138.779 58.2887 139.238 56.2213 139.238C53.9242 139.009 51.8569 138.549 50.2489 137.63ZM147.416 74.2309C146.267 74.92 144.429 74.92 143.051 74.2309L120.54 61.3672C119.851 60.9078 119.391 60.4484 119.391 59.7592C119.391 59.0701 119.851 58.381 120.54 58.1513C120.77 57.9216 120.769 57.9216 120.769 57.6919C120.769 57.6919 120.77 57.4621 120.31 57.2324L115.716 54.4759C112.73 52.868 108.136 52.868 105.149 54.4759L11.6578 108.687C10.5093 109.376 9.82016 110.295 9.82016 111.214C9.82016 112.133 10.5093 113.052 11.8875 113.741L50.938 136.023C53.9242 137.63 58.5184 137.63 61.5046 136.023L154.996 81.8113C156.145 81.1222 156.834 80.2033 156.834 79.2845C156.834 78.3656 156.145 77.4468 154.766 76.7577L150.172 74.0012C149.713 73.7715 149.253 73.7715 148.794 73.7715C148.335 73.7715 147.645 74.0012 147.416 74.2309Z" fill="#150035"/>
<path d="M143.281 68.4882C142.821 68.7179 142.821 69.407 143.281 69.6367C143.74 69.8665 144.659 69.8665 145.348 69.6367C145.808 69.407 145.808 68.7179 145.348 68.4882C144.889 68.2585 143.97 68.2585 143.281 68.4882Z" fill="#150035"/>
<path d="M128.35 61.1376L140.294 68.0289C140.754 68.2586 141.673 68.2586 142.132 68.0289C142.592 67.7992 142.821 67.11 142.362 66.8803L130.417 59.9891C129.958 59.7593 129.039 59.7593 128.579 59.9891C127.89 60.2188 127.661 60.6782 128.35 61.1376Z" fill="#150035"/>
<path d="M53.9214 141.536L53.0026 141.538L53.0113 145.213L53.9301 145.211L53.9214 141.536Z" fill="#FFB000"/>
<path d="M62.6503 140.617L61.7314 140.619L61.7402 144.294L62.659 144.292L62.6503 140.617Z" fill="#FFB000"/>
<path d="M45.1924 138.32L44.2736 138.322L44.2823 141.997L45.2011 141.995L45.1924 138.32Z" fill="#FFB000"/>
<path d="M155.683 86.6349L154.764 86.6371L154.773 90.3124L155.691 90.3102L155.683 86.6349Z" fill="#FFB000"/>
<path d="M8.66809 116.957L7.74927 116.959L7.75803 120.634L8.67685 120.632L8.66809 116.957Z" fill="#FFB000"/>
<path d="M158.899 84.7972L157.98 84.7994L157.988 88.4748L158.907 88.4726L158.899 84.7972Z" fill="#FFB000"/>
<path d="M59.4347 141.306L58.5159 141.308L58.5246 144.984L59.4435 144.982L59.4347 141.306Z" fill="#FFB000"/>
<path d="M127.661 105.701C127.431 105.471 127.201 105.012 127.201 104.553C127.201 103.634 127.661 102.945 128.35 102.485L132.025 100.418C132.484 100.188 132.714 100.188 133.174 100.418C133.403 100.647 133.633 101.107 133.633 101.566C133.633 102.485 133.174 103.174 132.484 103.634L128.809 105.701C128.579 105.701 128.35 105.931 128.12 105.931C128.12 105.701 127.89 105.701 127.661 105.701ZM132.484 101.337L128.809 103.404C128.579 103.634 128.12 104.093 128.12 104.553C128.12 104.782 128.12 104.782 128.12 104.782L131.795 102.715C132.255 102.485 132.484 102.026 132.484 101.337C132.484 101.107 132.484 101.337 132.484 101.337C132.484 101.107 132.484 101.107 132.484 101.337Z" fill="#FFB000"/>
<path d="M29.5751 133.036L25.8998 130.969C25.2106 130.51 24.7512 129.82 24.7512 128.902C24.7512 128.442 24.9809 127.983 25.2106 127.753C25.4403 127.523 25.8998 127.523 26.3592 127.753L30.0345 129.82C30.7237 130.28 31.1831 130.969 31.1831 131.888C31.1831 132.347 30.9534 132.807 30.7237 133.036C30.494 133.036 30.4939 133.266 30.2642 133.266C30.0345 133.266 29.8048 133.266 29.5751 133.036ZM25.8998 128.902C25.8998 129.361 26.1295 130.05 26.5889 130.05L30.2642 132.118C30.2642 132.118 30.2642 132.118 30.2642 131.888C30.2642 131.428 30.0345 130.739 29.5751 130.739L25.8998 128.672C25.8998 128.672 25.8998 128.672 25.8998 128.902Z" fill="#FFB000"/>
<path d="M120.999 109.606C120.769 109.377 120.54 108.917 120.54 108.458C120.54 107.539 120.999 106.85 121.688 106.39L125.364 104.323C125.823 104.093 126.053 104.093 126.512 104.323C126.742 104.553 126.971 105.012 126.971 105.471C126.971 106.39 126.512 107.079 125.823 107.539L122.148 109.606C121.918 109.606 121.688 109.836 121.458 109.836C121.229 109.836 120.999 109.836 120.999 109.606ZM125.593 105.242L121.918 107.309C121.688 107.539 121.229 107.998 121.229 108.458C121.229 108.687 121.229 108.687 121.229 108.687L124.904 106.62C125.364 106.62 125.823 105.931 125.593 105.242C125.823 105.242 125.823 105.242 125.593 105.242Z" fill="#FFB000"/>
<path d="M135.93 101.107C135.7 100.877 135.471 100.418 135.471 99.9584C135.471 99.0395 135.93 98.3504 136.619 97.891L137.308 97.4316C137.768 97.2019 137.997 97.2019 138.457 97.4316C138.687 97.6613 138.916 98.1207 138.916 98.5801C138.916 99.4989 138.457 100.188 137.768 100.648L137.079 101.107C136.849 101.107 136.619 101.337 136.39 101.337C136.39 101.107 136.16 101.107 135.93 101.107ZM137.768 98.3504L137.079 98.8098C136.849 99.0395 136.39 99.499 136.39 99.9584C136.39 100.188 136.39 100.188 136.39 100.188L137.079 99.7286C137.538 99.4989 137.997 99.0395 137.768 98.3504C137.997 98.3504 137.997 98.3504 137.768 98.3504Z" fill="#FFB000"/>
<path d="M109.514 13.3581C105.15 6.0074 100.096 9.91244 99.1771 10.6016C99.1771 10.6016 98.9474 10.6016 98.9474 10.3719C98.0286 8.53419 93.2047 -0.883872 88.6105 1.18351L81.2599 5.31827V5.54798L86.5432 14.5066L93.4344 33.5725L91.5968 34.0319V37.9369C91.5968 38.1666 91.8265 38.1666 91.8265 38.1666L99.1771 34.0319L108.365 26.6812C108.136 26.9109 115.027 22.5464 109.514 13.3581Z" fill="white"/>
<path d="M91.5968 39.3152C91.3671 39.3152 91.1373 39.3152 91.1373 39.0855C90.9076 38.8558 90.678 38.6261 90.678 38.1667V33.5725L92.2859 33.1131L85.6243 14.9661L80.3411 5.77774V5.31833C80.3411 5.08863 80.5707 4.85891 80.8004 4.6292L88.1511 0.494436C89.7591 -0.424399 92.5156 -0.424395 95.7315 3.71036C97.3395 5.54803 98.488 7.84512 99.1771 9.22338C100.326 8.53425 101.934 7.61541 104.001 8.07483C106.298 8.30454 108.366 10.1422 109.973 12.8987C115.946 22.7762 108.595 27.6001 108.595 27.6001L99.4069 34.9508L92.0562 39.0855C92.0562 39.0855 91.8265 39.3152 91.5968 39.3152ZM92.5156 34.9508V36.7884L98.7178 33.3428L107.676 26.2218C107.906 25.9921 113.649 22.3168 108.595 13.8176C107.217 11.5205 105.609 10.1422 104.001 9.91251C101.934 9.6828 100.326 10.8313 99.8663 11.2908L99.4069 11.5205H98.9474C98.488 11.5205 98.2583 11.2907 98.0286 10.8313C97.5692 9.9125 96.1909 7.15599 94.3532 4.85891C92.975 3.02124 90.9076 1.18357 89.07 2.10241L82.4084 5.77774L87.2323 14.277L94.583 34.4913L92.5156 34.9508Z" fill="#150035"/>
<path d="M102.163 18.4116C102.163 18.4116 98.947 18.1819 98.2578 18.4116C97.5687 18.4116 90.6775 21.6276 90.6775 21.6276L89.5289 24.1544L93.2042 34.0318L91.3666 34.4912V38.3963C91.3666 38.626 91.5963 38.626 91.5963 38.626L98.9469 34.4912L108.135 27.1406C108.135 27.1406 114.567 23.2355 109.743 14.5066L102.163 18.4116Z" fill="#FFB000"/>
<path d="M91.3665 39.3153C91.1368 39.3153 90.9071 39.3153 90.9071 39.0856C90.6774 38.8559 90.4477 38.6262 90.4477 38.1668V33.5726L92.0556 33.1131L88.61 23.6951L89.9883 20.4792L90.4477 20.2495C93.2042 19.1009 97.7984 17.2632 98.2578 17.0335C98.7172 17.0335 101.014 17.0335 102.163 17.0335L110.432 12.6691L110.892 13.5879C115.945 23.006 109.054 27.3704 108.824 27.6001L99.636 34.9508L92.2853 39.0856C91.8259 39.0856 91.5962 39.3153 91.3665 39.3153ZM92.2853 34.9508V36.7885L98.4875 33.3429L107.446 26.2219C107.676 25.9922 112.729 22.7763 109.284 15.6553L102.393 19.3306H102.163C100.555 19.3306 98.7172 19.1009 98.4875 19.3306C98.0281 19.5603 94.123 20.9386 91.3665 22.3168L90.6774 24.1545L94.5824 34.7211L92.2853 34.9508Z" fill="#150035"/>
<path d="M92.9749 14.0473L98.9472 10.8314V10.6017C98.4878 9.68286 97.1096 6.92636 95.2719 4.62927L87.9212 8.99374L85.6241 13.3582L86.543 14.7365L87.6915 17.7227L90.2183 19.79L92.9749 14.0473Z" fill="#FFB000"/>
<path d="M90.2183 21.1683L86.5429 18.4118L85.3944 15.1959L84.2458 13.3582L86.7727 8.30459L95.2719 3.48071L95.7313 4.16985C97.569 6.69664 99.1769 9.45314 99.6364 10.372C99.8661 10.6017 99.6364 11.0611 99.6364 11.2908V11.7502L93.6639 14.9662L90.2183 21.1683ZM88.1509 17.0335L89.5292 18.1821L92.0559 13.3582L97.569 10.372C97.1096 9.45314 95.961 7.61547 94.8125 5.7778L88.3806 9.45314L86.5429 13.1285L87.2321 14.277L88.1509 17.0335Z" fill="#150035"/>
<path d="M101.933 17.4928C97.569 10.1421 92.5154 14.0472 91.5965 14.7363C91.5965 14.7363 91.3668 14.7363 91.3668 14.5066C90.448 12.669 85.6241 3.25089 81.0299 5.31827C75.5169 8.07478 82.1785 20.2493 82.1785 20.2493L91.1371 38.1666C91.1371 38.3963 91.3668 38.3963 91.3668 38.3963L100.555 31.0456C100.785 31.0456 107.446 26.9109 101.933 17.4928Z" fill="#FFB000"/>
<path d="M91.8263 39.3152H91.3668C91.1371 39.3152 90.6777 39.0855 90.448 38.6261L81.4894 20.7088C81.2597 20.4791 76.8951 12.2096 78.2734 7.38568C78.7328 6.00743 79.422 5.08861 80.8002 4.39948C85.3944 2.10239 90.2183 9.68277 92.0559 13.1284C93.2045 12.4393 94.8124 11.5204 96.8798 11.9799C99.1769 12.2096 101.244 14.0473 102.852 16.8038C108.825 26.6812 101.474 31.5051 101.474 31.5051L91.8263 39.3152ZM82.4082 6.23714C82.1785 6.23714 81.7191 6.23715 81.4894 6.46686C80.8003 6.92628 80.3408 7.38569 80.1111 8.30452C78.9626 11.7502 81.9488 17.9523 83.0973 20.0197L91.8263 37.0181L100.096 30.3566C100.325 30.1269 106.068 26.4515 101.015 17.9523C99.6364 15.6552 98.0284 14.277 96.4204 14.0472C94.3531 13.8175 92.7451 14.9661 92.2856 15.4255L91.8263 15.6552H91.3668C90.9074 15.6552 90.6777 15.4255 90.448 14.9661C88.84 11.5205 85.3944 6.23714 82.4082 6.23714Z" fill="#150035"/>
<path d="M88.0237 21.6196L86.3905 22.462L91.55 32.465L93.1832 31.6226L88.0237 21.6196Z" fill="#150035"/>
<path d="M89.7585 11.7501L97.1093 7.61536L98.7172 10.8313L91.3665 14.7363L89.7585 11.7501Z" fill="#150035"/>
<path d="M102.393 30.3566L105.838 28.7486L110.203 25.5327L111.351 22.0871L111.581 18.6414L110.892 17.2632L104.001 21.1682L104.46 23.695L103.541 26.9109L102.393 30.3566Z" fill="#150035"/>
<path d="M125.134 88.7027C120.77 81.352 115.716 85.257 114.797 85.9461C114.797 85.9461 114.568 85.9462 114.568 85.7165C113.649 83.8788 108.825 74.4607 104.231 76.5281L96.88 80.6629V80.8926L102.163 89.8512L109.055 108.917L107.217 109.376V113.282C107.217 113.511 107.447 113.511 107.447 113.511L114.797 109.376L123.986 102.026C123.986 102.255 130.647 97.891 125.134 88.7027Z" fill="white"/>
<path d="M107.446 114.66C107.217 114.66 106.987 114.66 106.987 114.43C106.757 114.2 106.527 113.97 106.527 113.511V108.917L108.135 108.457L101.474 90.3105L96.1906 81.1221V80.6627C96.1906 80.433 96.4202 80.2033 96.6499 79.9736L104.001 75.8388C108.825 73.5417 113.419 81.1221 115.256 84.5678C116.405 83.8786 118.013 82.9598 120.08 83.4192C122.377 83.6489 124.445 85.4866 126.053 88.2431C132.025 98.1205 124.674 102.944 124.674 102.944L115.486 110.295L108.135 114.43C107.676 114.43 107.446 114.66 107.446 114.66ZM108.135 110.295V112.133L114.338 108.687L123.296 101.566C123.526 101.336 129.269 97.6612 124.215 89.1619C122.837 86.8648 121.229 85.4866 119.621 85.2569C117.553 85.0272 115.945 86.1757 115.486 86.6351L115.027 86.8648H114.567C114.108 86.8648 113.878 86.6351 113.648 86.1757C111.811 82.2707 107.676 76.0685 104.69 77.4468L98.0282 81.1221L102.852 89.6213L110.203 109.606L108.135 110.295Z" fill="#150035"/>
<path d="M117.784 93.7561C117.784 93.7561 114.568 93.5264 113.878 93.7561C113.189 93.7561 106.298 96.972 106.298 96.972L105.15 99.4988L108.825 109.376L106.987 109.836V113.741C106.987 113.97 107.217 113.97 107.217 113.97L114.568 109.836L123.756 102.485C123.756 102.485 130.188 98.58 125.364 89.8511L117.784 93.7561Z" fill="#FFB000"/>
<path d="M107.217 114.66C106.987 114.66 106.758 114.66 106.758 114.43C106.528 114.2 106.298 113.971 106.298 113.511V108.917L107.906 108.458L104.461 99.0396L105.839 95.8236L106.298 95.5939C109.055 94.4454 113.649 92.6077 114.108 92.378C114.568 92.378 116.865 92.378 118.013 92.378L126.283 88.0135L126.742 88.9324C131.796 98.3504 124.905 102.715 124.675 102.945L115.487 110.295L108.136 114.43C107.447 114.43 107.217 114.66 107.217 114.66ZM107.906 110.295V112.133L114.108 108.687L123.067 101.566C123.297 101.337 128.35 98.1207 124.905 90.9998L118.013 94.6751H117.784C116.176 94.6751 114.338 94.4454 114.108 94.6751C113.649 94.9048 109.744 96.2831 106.987 97.6613L106.298 99.499L110.203 110.066L107.906 110.295Z" fill="#150035"/>
<path d="M108.595 89.3917L114.568 86.1758V85.946C114.108 85.0272 112.73 82.2707 110.892 79.9736L103.542 84.3381L101.245 88.7026L102.163 90.0808L103.312 93.067L105.839 95.1344L108.595 89.3917Z" fill="#FFB000"/>
<path d="M105.839 96.5126L102.163 93.7561L101.015 90.5402L99.8663 88.7026L102.393 83.6489L110.892 78.8251L111.352 79.5142C113.189 82.041 114.797 84.7975 115.257 85.7163C115.486 85.946 115.257 86.4054 115.257 86.6352V87.0946L109.284 90.3105L105.839 96.5126ZM103.771 92.3779L105.15 93.5264L107.676 88.7026L113.189 85.7163C112.73 84.7975 111.581 82.9598 110.433 81.1222L104.001 84.7975L102.163 88.4728L102.853 89.6214L103.771 92.3779Z" fill="#150035"/>
<path d="M117.554 92.8373C113.189 85.4866 108.135 89.3917 107.217 90.0808C107.217 90.0808 106.987 90.0808 106.987 89.8511C106.068 88.0134 101.244 78.5954 96.65 80.6628C91.137 83.4193 97.7986 95.5938 97.7986 95.5938L106.757 113.511C106.757 113.741 106.987 113.741 106.987 113.741L116.175 106.39C116.405 106.39 123.067 102.255 117.554 92.8373Z" fill="#FFB000"/>
<path d="M107.446 114.66H106.987C106.757 114.66 106.298 114.43 106.298 113.971L97.3393 96.0532C97.1096 95.8235 92.7451 87.554 94.1234 82.7301C94.5828 81.3519 95.2719 80.433 96.6501 79.7439C98.2581 79.0548 100.785 78.8251 104.231 82.9599C105.839 84.7975 106.987 87.0946 107.676 88.4729C108.825 87.7837 110.433 86.8649 112.5 87.3243C114.797 87.554 116.864 89.3917 118.472 92.1482C124.445 102.026 117.094 106.85 117.094 106.85L107.446 114.66ZM98.0284 81.5816C97.7987 81.5816 97.3393 81.5816 97.1096 81.8113C96.4204 82.2707 95.961 82.7301 95.7313 83.649C94.5828 87.0946 97.569 93.2967 98.7176 95.3641L107.446 112.363L115.716 105.701C115.946 105.471 121.688 101.796 116.635 93.2968C115.257 90.9997 113.649 89.6214 112.041 89.3917C109.973 89.162 108.365 90.3105 107.906 90.7699L107.446 90.9997H106.987C106.528 90.9997 106.298 90.7699 106.068 90.3105C105.609 89.3917 104.231 86.6352 102.393 84.3381C101.244 83.1895 99.6363 81.5816 98.0284 81.5816Z" fill="#150035"/>
<path d="M103.643 96.9889L102.009 97.8313L107.169 107.834L108.802 106.992L103.643 96.9889Z" fill="#150035"/>
<path d="M105.379 87.0946L112.73 82.9598L114.338 86.1757L106.987 90.0808L105.379 87.0946Z" fill="#150035"/>
<path d="M118.013 105.701L121.689 104.093L125.823 100.877L126.972 97.4315L127.202 93.9859L126.512 92.6077L119.851 96.5127L120.081 99.0395L119.162 102.255L118.013 105.701Z" fill="#150035"/>
<path d="M75.2874 36.5587C70.9229 29.2081 65.8693 33.1131 64.9505 33.8022C64.9505 33.8022 64.7208 33.8023 64.7208 33.5726C63.8019 31.7349 58.9781 22.3168 54.3839 24.3842L47.0332 28.519V28.7487L52.3165 37.7073L59.2078 56.7731L57.3701 57.2325V61.1376C57.3701 61.3673 57.5998 61.3673 57.5998 61.3673L64.9505 57.2325L74.1388 49.8819C74.1388 50.1116 80.8004 45.9768 75.2874 36.5587Z" fill="white"/>
<path d="M57.5997 62.5158C57.37 62.5158 57.1403 62.5158 57.1403 62.2861C56.9106 62.0564 56.6809 61.8267 56.6809 61.3672V56.7731L58.2889 56.3137L51.6273 38.1667L46.344 28.9783V28.5189C46.344 28.2892 46.5737 28.0595 46.8034 27.8298L54.1541 23.695C58.978 21.3979 63.5722 28.9783 65.4099 32.424C66.5584 31.7348 68.1663 30.816 70.2337 31.2754C72.5308 31.7348 74.5982 33.3428 76.2061 36.0993C82.1786 45.9767 74.8279 50.8007 74.8279 50.8007L65.6395 58.1513L58.2889 62.2861C57.8295 62.5158 57.8295 62.5158 57.5997 62.5158ZM58.2889 58.1513V59.989L64.491 56.5434L73.6793 49.1927C73.909 48.963 79.6518 45.2876 74.5982 36.7884C73.22 34.4913 71.612 33.1131 70.004 32.8834C67.9367 32.6537 66.3287 33.8022 65.8692 34.2616L65.4099 34.4913H64.9504C64.491 34.4913 64.2613 34.2616 64.0316 33.8022C62.1939 29.8971 58.0591 23.4653 55.0729 25.0733L48.4114 28.7486L53.2353 37.0181L60.586 57.2325L58.2889 58.1513Z" fill="#150035"/>
<path d="M67.9367 41.6124C67.9367 41.6124 64.7208 41.3826 64.0317 41.6124C63.3425 41.6124 56.4513 44.8283 56.4513 44.8283L55.3027 47.3551L58.9781 57.2325L57.1404 57.692V61.597C57.1404 61.8267 57.3701 61.8267 57.3701 61.8267L64.7208 57.692L73.9091 50.3413C73.9091 50.3413 80.341 46.4362 75.5171 37.7073L67.9367 41.6124Z" fill="#FFB000"/>
<path d="M57.37 62.5158C57.1403 62.5158 56.9106 62.5158 56.9106 62.2861C56.6809 62.0564 56.4512 61.8267 56.4512 61.3673V56.7731L58.0592 56.3137L54.6135 46.8956L55.9918 43.6797L56.4512 43.45C59.2077 42.3014 63.8019 40.4638 64.2613 40.2341C64.7207 40.2341 67.0178 40.2341 68.1663 40.2341L76.4359 35.8696L76.8953 36.7884C81.9489 46.2065 75.0576 50.571 74.8279 50.8007L65.6395 58.1514L58.2889 62.2861C57.5998 62.5158 57.5997 62.5158 57.37 62.5158ZM58.0592 58.1514V59.989L64.2613 56.5434L73.4497 49.1927C73.6794 48.963 78.7329 45.7471 75.2873 38.6261L68.3961 42.3014H68.1663C66.5584 42.3014 64.7207 42.0717 64.491 42.3014C64.0316 42.5312 60.1265 43.9094 57.37 45.2877L56.6809 47.1253L60.586 57.692L58.0592 58.1514Z" fill="#150035"/>
<path d="M58.7481 37.2479L64.7205 34.032V33.8023C64.2611 32.8834 62.8829 30.1269 61.0452 27.8298L53.6945 32.1943L51.3975 36.5588L52.3163 37.937L53.4648 40.9232L55.9916 42.9906L58.7481 37.2479Z" fill="#FFB000"/>
<path d="M56.2212 44.3689L52.5459 41.6124L51.3973 38.3964L50.2488 36.5587L52.7756 31.5052L61.2748 26.6813L61.7342 27.3704C63.5719 29.6675 64.9501 32.424 65.6392 33.5726C65.8689 33.8023 65.6392 34.2617 65.6392 34.4914V34.9508L59.6668 38.1667L56.2212 44.3689ZM53.9241 40.4638L55.3024 41.6124L57.8291 36.7885L63.3421 33.8022C62.8827 32.8834 61.7342 31.0457 60.5857 29.2081L54.1538 32.8834L52.3161 36.5587L53.0053 37.7073L53.9241 40.4638Z" fill="#150035"/>
<path d="M67.7067 40.9233C63.3423 33.5726 58.2887 37.4776 57.3698 38.1668C57.3698 38.1668 57.1401 38.1668 57.1401 37.937C56.2213 36.0994 51.3974 26.6813 46.8032 28.7487C41.2902 31.5052 47.9518 43.6798 47.9518 43.6798L56.9104 61.5971C56.9104 61.8268 57.1401 61.8267 57.1401 61.8267L66.3285 54.4761C66.5582 54.2464 73.2198 50.1116 67.7067 40.9233Z" fill="#FFB000"/>
<path d="M57.5996 62.7455H57.1401C56.9104 62.7455 56.451 62.5158 56.2213 62.0564L47.2627 44.1391C47.033 43.9094 42.6685 35.6399 44.0467 30.816C44.5061 29.4377 45.1953 28.5189 46.5735 27.8298C51.1677 25.5327 55.9916 33.1131 57.8292 36.5587C58.9778 35.8696 60.5858 34.9507 62.6531 35.4102C64.9502 35.6399 67.0176 37.4776 68.6256 40.2341C74.598 50.1115 67.2473 54.9354 67.2473 54.9354L57.5996 62.7455ZM48.1815 29.4378C47.9518 29.4378 47.4924 29.4377 47.2627 29.6675C46.5735 30.1269 46.1141 30.5863 45.8844 31.5051C44.7359 34.9507 47.7221 41.1529 48.8706 43.2203L57.5996 60.2187L65.869 53.5572C66.0988 53.3275 71.8415 49.6521 66.7879 41.1529C65.4096 38.8558 63.8017 37.4775 62.1937 37.2478C60.1263 37.0181 58.5184 38.1667 58.059 38.6261L57.5996 38.8558H57.1401C56.6807 38.8558 56.451 38.6261 56.2213 38.1667C54.6133 34.9508 51.1677 29.4378 48.1815 29.4378Z" fill="#150035"/>
<path d="M53.9747 44.7684L52.3416 45.6108L57.5012 55.6138L59.1343 54.7714L53.9747 44.7684Z" fill="#150035"/>
<path d="M55.5322 34.9508L62.8829 30.816L64.4909 34.032L57.1402 37.937L55.5322 34.9508Z" fill="#150035"/>
<path d="M68.1663 53.5573L71.8416 51.9493L75.9763 48.7334L77.1249 45.2877L77.3546 41.8421L76.8952 40.4639L70.004 44.3689L70.2336 47.1254L69.3148 50.3413L68.1663 53.5573Z" fill="#150035"/>
<path d="M78.0438 85.0273C73.6793 77.6766 68.6257 81.5816 67.7069 82.2708C67.7069 82.2708 67.4772 82.2708 67.4772 82.041C66.5583 80.2034 61.7344 70.7853 57.1403 72.8527L49.7896 76.9875V77.2172L55.0729 86.1758L61.9642 105.242L60.1264 105.701V109.606C60.1264 109.836 60.3562 109.836 60.3562 109.836L67.7069 105.701L76.8952 98.3504C76.8952 98.5801 83.7865 94.2156 78.0438 85.0273Z" fill="white"/>
<path d="M60.3559 110.755C60.1262 110.755 59.8965 110.755 59.8965 110.525C59.6668 110.295 59.4371 110.066 59.4371 109.606V105.012L61.0451 104.553L54.3835 86.4056L49.1002 77.2172V76.7578C49.1002 76.5281 49.3299 76.2984 49.5596 76.0687L56.9103 71.9339C61.7342 69.6368 66.3283 77.2172 68.166 80.6628C69.3146 79.9737 70.9225 79.0549 72.9899 79.5143C75.287 79.744 77.3544 81.5817 78.9624 84.3382C84.9348 94.2156 77.5841 99.0395 77.5841 99.0395L68.3957 106.39L61.0451 110.525C60.8154 110.755 60.5856 110.755 60.3559 110.755ZM61.0451 106.62V108.458L67.2472 105.012L76.4355 97.6613C76.6653 97.4316 82.408 93.7562 77.3544 85.257C75.9761 82.9599 74.3682 81.5817 72.7602 81.3519C70.6928 81.1222 69.0849 82.2708 68.6255 82.7302L68.166 82.9599H67.7066C67.2472 82.9599 67.0175 82.7302 66.7878 82.2708C64.9501 78.3657 60.8153 72.1636 57.8291 73.5419L51.1676 77.2172L55.9915 85.7164L63.3421 105.701L61.0451 106.62Z" fill="#150035"/>
<path d="M70.6931 89.8512C70.6931 89.8512 67.4771 89.6215 66.788 89.8512C66.0989 89.8512 59.2076 93.0672 59.2076 93.0672L58.0591 95.594L61.7344 105.471L59.8968 105.931V109.836C59.8968 110.066 60.1264 110.066 60.1264 110.066L67.4772 105.931L76.6655 98.5801C76.6655 98.5801 83.0973 94.6751 78.2734 85.9462L70.6931 89.8512Z" fill="#FFB000"/>
<path d="M60.1262 110.755C59.8965 110.755 59.6668 110.755 59.6668 110.525C59.4371 110.295 59.2074 110.066 59.2074 109.606V105.012L60.8154 104.553L57.3698 95.1345L58.748 91.9186L59.2074 91.6889C61.9639 90.5403 66.5581 88.7027 67.0175 88.473C67.4769 88.473 69.774 88.473 70.9226 88.473L79.1921 84.1085L79.6515 85.0273C84.7051 94.4454 77.8138 98.8099 77.5841 99.0396L68.3958 106.39L61.0451 110.525C60.5857 110.755 60.356 110.755 60.1262 110.755ZM60.8154 106.62V108.458L67.0175 105.012L76.2059 97.6613C76.4356 97.4316 81.4892 94.2157 78.0436 87.0947L71.1523 90.7701H70.9226C69.3146 90.7701 67.4769 90.5404 67.2472 90.7701C66.7878 90.9998 62.8828 92.378 60.1262 93.7563L59.4372 95.594L63.3422 106.161L60.8154 106.62Z" fill="#150035"/>
<path d="M61.5045 85.7164L67.4769 82.5005V82.2708C67.0175 81.3519 65.6392 78.5954 63.8016 76.2983L56.4509 80.6628L54.1538 85.0273L55.0726 86.4055L56.2212 89.3917L58.748 91.4591L61.5045 85.7164Z" fill="#FFB000"/>
<path d="M58.9775 92.6076L55.3022 89.8511L54.1537 86.6352L53.0051 84.7975L55.5319 79.7439L64.0312 74.92L64.4905 75.6091C66.3282 77.9062 67.7065 80.6628 68.3956 81.8113C68.6253 82.2707 68.3956 82.5004 68.3956 82.7301V83.1895L62.4232 86.4055L58.9775 92.6076ZM56.9102 88.7026L58.2884 89.8511L60.8152 85.0272L66.3282 82.041C65.8688 81.1222 64.7203 79.2845 63.5717 77.4468L57.1399 81.1222L55.3022 84.7975L55.9913 85.946L56.9102 88.7026Z" fill="#150035"/>
<path d="M70.4631 89.162C66.0986 81.8114 61.045 85.7164 60.1262 86.4055C60.1262 86.4055 59.8965 86.4055 59.8965 86.1758C58.9776 84.3381 54.1538 74.9201 49.5596 76.9875C44.0466 79.744 50.7081 91.9185 50.7081 91.9185L59.6668 109.836C59.6668 110.066 59.8965 110.066 59.8965 110.066L69.0848 102.715C69.3145 102.715 76.2058 98.3504 70.4631 89.162Z" fill="#FFB000"/>
<path d="M60.3559 110.984H59.8965C59.6668 110.984 59.2073 110.755 58.9776 110.295L50.019 92.378C49.7893 92.1483 45.4248 83.8787 46.8031 79.0549C47.2625 77.6766 47.9516 76.7578 49.3298 76.0687C53.924 73.7716 58.7479 81.3519 60.5856 84.7976C61.7341 84.1085 63.3421 83.1896 65.4095 83.649C67.7066 83.8787 69.7739 85.7164 71.3819 88.4729C77.3543 98.3504 70.0037 103.174 70.0037 103.174L60.3559 110.984ZM51.1675 77.6766C50.9378 77.6766 50.4784 77.6766 50.2487 77.9063C49.5596 78.3657 49.1001 78.8252 48.8704 79.744C47.7219 83.1896 50.7081 89.3918 51.8567 91.4592L60.5856 108.458L68.8551 101.796C69.0848 101.566 74.8275 97.891 69.7739 89.3918C68.3957 87.0947 66.7877 85.7164 65.1798 85.4867C63.1124 85.257 61.5044 86.4056 61.045 86.865L60.5856 87.0947H60.1261C59.6667 87.0947 59.437 86.865 59.2073 86.4056C57.3697 83.1896 53.924 77.6766 51.1675 77.6766Z" fill="#150035"/>
<path d="M56.8017 93.2456L55.1686 94.088L60.3282 104.091L61.9613 103.249L56.8017 93.2456Z" fill="#150035"/>
<path d="M58.2886 83.1896L65.8689 79.0548L67.4769 82.2708L59.8965 86.4055L58.2886 83.1896Z" fill="#150035"/>
<path d="M70.9225 101.796L74.5978 100.188L78.7326 97.2019L80.1108 93.5265V90.0809L79.6514 88.9324L72.7601 92.6077L73.2196 95.3642L72.3008 98.5801L70.9225 101.796Z" fill="#150035"/>
<path d="M85.1644 93.5266L83.3268 93.2969C83.7862 89.6215 82.408 86.6353 82.408 86.6353L84.0159 85.9462C84.2456 85.9462 85.6238 89.3918 85.1644 93.5266Z" fill="#150035"/>
<path d="M92.9747 61.597C88.6102 54.2463 83.5566 58.1513 82.6378 58.8405C82.6378 58.8405 82.4081 58.8405 82.4081 58.6108C81.4892 56.7731 76.6653 47.355 72.0712 49.4224L64.7205 53.5572V53.7869L70.0038 62.7455L76.8951 81.8114L75.0574 82.2708V86.1758C75.0574 86.4055 75.2871 86.4055 75.2871 86.4055L82.6378 82.2708L91.8261 74.9201C91.8261 75.1498 98.7174 71.015 92.9747 61.597Z" fill="white"/>
<path d="M75.2872 87.554C75.0575 87.554 74.8278 87.554 74.8278 87.3243C74.5981 87.0946 74.3684 86.8649 74.3684 86.4055V81.8113L75.9763 81.3518L69.3148 63.2049L64.0315 54.0165V53.5571C64.0315 53.3274 64.2612 53.0977 64.4909 52.868L71.8416 48.7332C73.4495 47.8144 76.206 47.8144 79.4219 51.9491C81.0299 53.7868 82.1784 56.0839 82.8676 57.4621C84.0161 56.773 85.6241 55.8542 87.6915 56.3136C89.9886 56.5433 92.0559 58.381 93.6639 61.1375C99.6363 71.015 92.2856 75.8388 92.2856 75.8388L83.0973 83.1895L75.7467 87.3243C75.7467 87.554 75.5169 87.554 75.2872 87.554ZM75.9763 83.1895V85.0272L82.1785 81.5816L91.1371 74.4606C91.3668 74.2309 97.1095 70.5555 92.0559 62.0563C90.6777 59.7592 89.0697 58.381 87.4617 58.1513C85.3944 57.9216 83.7864 59.0701 83.327 59.5295L82.8676 59.7592H82.4082C81.9488 59.7592 81.7191 59.5295 81.4894 59.0701C81.03 58.1513 79.6517 55.3948 77.814 53.0977C76.4358 51.26 74.3683 49.4223 72.5307 50.3412L65.8691 54.0165L70.693 62.5157L78.0437 82.7301L75.9763 83.1895Z" fill="#150035"/>
<path d="M85.6237 66.6505C85.6237 66.6505 82.4078 66.4208 81.7187 66.6505C81.0295 66.6505 74.1383 69.8664 74.1383 69.8664L72.9897 72.3932L76.6651 82.2707L74.8274 82.7301V86.6352C74.8274 86.8649 75.0571 86.8649 75.0571 86.8649L82.4078 82.7301L91.5962 75.3795C91.5962 75.3795 98.028 71.4744 93.2041 62.7455L85.6237 66.6505Z" fill="#FFB000"/>
<path d="M75.0572 87.5542C74.8275 87.5542 74.5979 87.5542 74.5979 87.3245C74.3682 87.0948 74.1384 86.8651 74.1384 86.4056V81.8115L75.7464 81.352L72.3008 71.934L73.679 68.718L74.1384 68.4884C76.8949 67.3398 81.4891 65.5021 81.9485 65.2724C82.4079 65.2724 84.705 65.2724 85.8536 65.2724L94.1231 60.908L94.5825 61.8268C99.6361 71.2448 92.7448 75.6093 92.5151 75.839L83.3268 83.1897L75.9761 87.3245C75.5166 87.5542 75.287 87.5542 75.0572 87.5542ZM75.7464 83.1897V85.0274L81.9485 81.5817L90.9071 74.4608C91.1368 74.2311 96.1905 71.0152 92.7448 63.8942L85.8536 67.5695H85.6239C84.0159 67.5695 82.4079 67.3398 81.9485 67.5695C81.4891 67.7992 77.584 69.1775 74.8275 70.5557L74.1384 72.3934L78.0435 82.96L75.7464 83.1897Z" fill="#150035"/>
<path d="M76.4355 62.2861L82.408 59.0702V58.8405C81.9486 57.9216 80.5703 55.1651 78.7326 52.868L71.3819 57.2325L69.0848 61.597L70.0037 62.9752L71.1523 65.9614L73.679 68.0288L76.4355 62.2861Z" fill="#FFB000"/>
<path d="M73.9087 69.407L70.2334 66.6506L69.0848 63.4346L67.9363 61.597L70.4631 56.5434L78.9623 51.7195L79.4217 52.4086C81.2594 54.9354 82.8674 57.6919 83.3268 58.6107C83.5565 58.8405 83.3268 59.2999 83.3268 59.5296V59.989L77.3544 63.2049L73.9087 69.407ZM71.8414 65.502L73.2196 66.6506L75.7464 61.8267L81.2594 58.8405C80.8 57.9216 79.6514 56.084 78.5029 54.2463L72.0711 57.9216L70.2334 61.597L70.9225 62.7455L71.8414 65.502Z" fill="#150035"/>
<path d="M85.394 65.9614C81.0295 58.6107 75.9759 62.5157 75.0571 63.2049C75.0571 63.2049 74.8274 63.2048 74.8274 62.9751C73.9085 61.1375 69.0847 51.7194 64.4905 53.7868C58.9775 56.5433 65.639 68.7178 65.639 68.7178L74.5977 86.6351C74.5977 86.8648 74.8274 86.8649 74.8274 86.8649L84.0157 79.5142C84.2454 79.5142 91.1367 75.1497 85.394 65.9614Z" fill="white"/>
<path d="M75.2869 87.7838H74.8275C74.5977 87.7838 74.1383 87.5541 73.9086 87.0947L64.95 69.1774C64.7203 68.9477 60.3558 60.6782 61.7341 55.8543C62.1935 54.476 62.8827 53.5572 64.2609 52.8681C65.8689 52.1789 68.3956 51.9492 71.8413 56.084C73.4492 57.9216 74.5978 60.2188 75.2869 61.597C76.4354 60.9079 78.0434 59.989 80.1108 60.4485C82.4079 60.9079 84.4753 62.5158 86.0832 65.2723C92.0557 75.1498 84.705 79.9737 84.705 79.9737L75.2869 87.7838ZM66.0986 54.476C65.8688 54.476 65.4094 54.476 65.1797 54.7057C64.4906 55.1652 64.0312 55.6246 63.8015 56.5434C62.6529 59.9891 65.6391 66.1912 66.7876 68.2585L75.5166 85.257L83.7862 78.5954C84.0159 78.3657 89.7586 74.6904 84.705 66.1912C83.3267 63.8941 81.7188 62.5159 80.1108 62.2861C78.0434 62.0564 76.4354 63.205 75.976 63.6644L75.5166 63.8941H75.0572C74.5978 63.8941 74.3681 63.6644 74.1384 63.205C73.6789 62.2861 72.3007 59.5296 70.463 57.2325C69.0848 56.084 67.4768 54.476 66.0986 54.476Z" fill="#150035"/>
<path d="M71.6559 69.8285L70.0227 70.6709L75.1824 80.6738L76.8155 79.8314L71.6559 69.8285Z" fill="#150035"/>
<path d="M73.2196 59.989L80.8 55.8542L82.408 59.0702L74.8275 62.9752L73.2196 59.989Z" fill="#150035"/>
<path d="M85.8538 78.5954L89.5291 76.9874L93.6638 74.0012L95.0421 70.3259V66.8802L94.5827 65.7317L87.6914 69.407L88.1508 72.1635L87.232 75.3795L85.8538 78.5954Z" fill="#150035"/>
</svg>
